<svg fill="none" height="150" viewBox="0 0 150 150" width="150" xmlns="http://www.w3.org/2000/svg"><path d="m0 0h150v150h-150z"/><path d="m58.75 42.6875v-13.125c0-.8702.3424-1.7048.9519-2.3202.6095-.6153 1.4362-.9611 2.2981-.9611.862 0 1.6886.3458 2.2981.9611.6095.6154.9519 1.45.9519 2.3202v13.125c0 .8702-.3424 1.7048-.9519 2.3202-.6095.6153-1.4361.9611-2.2981.9611-.8619 0-1.6886-.3458-2.2981-.9611-.6095-.6154-.9519-1.45-.9519-2.3202zm16.25 3.2813c.862 0 1.6886-.3458 2.2981-.9611.6095-.6154.9519-1.45.9519-2.3202v-13.125c0-.8702-.3424-1.7048-.9519-2.3202-.6095-.6153-1.4361-.9611-2.2981-.9611-.8619 0-1.6886.3458-2.2981.9611-.6095.6154-.9519 1.45-.9519 2.3202v13.125c0 .8702.3424 1.7048.9519 2.3202.6095.6153 1.4362.9611 2.2981.9611zm13 0c.862 0 1.6886-.3458 2.2981-.9611.6095-.6154.9519-1.45.9519-2.3202v-13.125c0-.8702-.3424-1.7048-.9519-2.3202-.6095-.6153-1.4361-.9611-2.2981-.9611-.8619 0-1.6886.3458-2.2981.9611-.6095.6154-.9519 1.45-.9519 2.3202v13.125c0 .8702.3424 1.7048.9519 2.3202.6095.6153 1.4362.9611 2.2981.9611zm37.7 19.0312-11.7 8.8594v24.6094c0 3.4812-1.37 6.8192-3.808 9.2812-2.438 2.461-5.744 3.844-9.192 3.844h-52c-3.4478 0-6.7544-1.383-9.1924-3.844-2.4379-2.462-3.8076-5.8-3.8076-9.2812v-24.6094l-11.7-8.8594c-.6895-.5221-1.1454-1.2995-1.2673-2.161s.1001-1.7366.6173-2.4328c.5172-.6961 1.2871-1.1564 2.1404-1.2795.8533-.123 1.7201.1012 2.4096.6233l7.8 5.9062v-6.5624c0-1.7405.6848-3.4097 1.9038-4.6404s2.8723-1.9222 4.5962-1.9222h65c1.724 0 3.377.6915 4.596 1.9222s1.904 2.8999 1.904 4.6404v6.5624l7.8-5.9062c.69-.5221 1.556-.7463 2.41-.6233.853.1231 1.623.5834 2.14 1.2795.517.6962.739 1.5713.617 2.4328s-.577 1.6389-1.267 2.161zm-18.2-5.9062h-65v39.375c0 1.7402.6848 3.4092 1.9038 4.6402s2.8723 1.922 4.5962 1.922h52c1.724 0 3.377-.691 4.596-1.922s1.904-2.9 1.904-4.6402z" fill="#fcfbff"/></svg>