<svg fill="none" height="150" viewBox="0 0 150 150" width="150" xmlns="http://www.w3.org/2000/svg"><path d="m0 0h150v150h-150z"/><g stroke="#fcfbff" stroke-width="7"><path d="m62.7087 89.7507v7.3749c0 4.5644-1.8131 8.9414-5.0402 12.1684-3.2272 3.227-7.6042 5.04-12.1682 5.04-4.5639 0-8.9409-1.813-12.1681-5.04s-5.0402-7.604-5.0402-12.1684v-34.4166m59 27.0417v7.3749c0 4.5644 1.813 8.9414 5.0402 12.1684s7.6042 5.04 12.1678 5.04c4.564 0 8.941-1.813 12.168-5.04 3.228-3.227 5.041-7.604 5.041-12.1684v-34.4166" stroke-linecap="round" stroke-linejoin="round"/><path d="m94.667 35.667h-39.3333c-14.9347 0-27.0417 12.107-27.0417 27.0417s12.107 27.0416 27.0417 27.0416h39.3333c14.935 0 27.042-12.1069 27.042-27.0416s-12.107-27.0417-27.042-27.0417z"/><path d="m67.6257 62.7083h-19.6667m9.8333-9.8333v19.6667" stroke-linecap="round" stroke-linejoin="round"/></g><g fill="#fcfbff"><path d="m104.5 57.7917c0-2.7154-2.201-4.9167-4.9163-4.9167-2.7154 0-4.9167 2.2013-4.9167 4.9167s2.2013 4.9166 4.9167 4.9166c2.7153 0 4.9163-2.2012 4.9163-4.9166z"/><path d="m94.6673 70.0837c0-2.7154-2.2012-4.9167-4.9166-4.9167s-4.9167 2.2013-4.9167 4.9167 2.2013 4.9166 4.9167 4.9166 4.9166-2.2012 4.9166-4.9166z"/></g></svg>