<svg width="150" height="150" viewBox="0 0 150 150" fill="none" xmlns="http://www.w3.org/2000/svg">
<g id="ph:google-podcasts-logo">
<path id="Vector" d="M79.6875 9.375V28.125C79.6875 29.3682 79.1936 30.5605 78.3146 31.4396C77.4355 32.3186 76.2432 32.8125 75 32.8125C73.7568 32.8125 72.5645 32.3186 71.6854 31.4396C70.8064 30.5605 70.3125 29.3682 70.3125 28.125V9.375C70.3125 8.1318 70.8064 6.93951 71.6854 6.06044C72.5645 5.18136 73.7568 4.6875 75 4.6875C76.2432 4.6875 77.4355 5.18136 78.3146 6.06044C79.1936 6.93951 79.6875 8.1318 79.6875 9.375ZM103.125 32.8125C101.882 32.8125 100.69 33.3064 99.8104 34.1854C98.9314 35.0645 98.4375 36.2568 98.4375 37.5V56.25C98.4375 57.4932 98.9314 58.6855 99.8104 59.5646C100.69 60.4436 101.882 60.9375 103.125 60.9375C104.368 60.9375 105.56 60.4436 106.44 59.5646C107.319 58.6855 107.812 57.4932 107.812 56.25V37.5C107.812 36.2568 107.319 35.0645 106.44 34.1854C105.56 33.3064 104.368 32.8125 103.125 32.8125ZM75 117.188C73.7568 117.188 72.5645 117.681 71.6854 118.56C70.8064 119.44 70.3125 120.632 70.3125 121.875V140.625C70.3125 141.868 70.8064 143.06 71.6854 143.94C72.5645 144.819 73.7568 145.312 75 145.312C76.2432 145.312 77.4355 144.819 78.3146 143.94C79.1936 143.06 79.6875 141.868 79.6875 140.625V121.875C79.6875 120.632 79.1936 119.44 78.3146 118.56C77.4355 117.681 76.2432 117.188 75 117.188ZM75 46.875C73.7568 46.875 72.5645 47.3689 71.6854 48.2479C70.8064 49.127 70.3125 50.3193 70.3125 51.5625V98.4375C70.3125 99.6807 70.8064 100.873 71.6854 101.752C72.5645 102.631 73.7568 103.125 75 103.125C76.2432 103.125 77.4355 102.631 78.3146 101.752C79.1936 100.873 79.6875 99.6807 79.6875 98.4375V51.5625C79.6875 50.3193 79.1936 49.127 78.3146 48.2479C77.4355 47.3689 76.2432 46.875 75 46.875ZM46.875 32.8125C45.6318 32.8125 44.4395 33.3064 43.5604 34.1854C42.6814 35.0645 42.1875 36.2568 42.1875 37.5V70.3125C42.1875 71.5557 42.6814 72.748 43.5604 73.6271C44.4395 74.5061 45.6318 75 46.875 75C48.1182 75 49.3105 74.5061 50.1896 73.6271C51.0686 72.748 51.5625 71.5557 51.5625 70.3125V37.5C51.5625 36.2568 51.0686 35.0645 50.1896 34.1854C49.3105 33.3064 48.1182 32.8125 46.875 32.8125ZM103.125 75C101.882 75 100.69 75.4939 99.8104 76.3729C98.9314 77.252 98.4375 78.4443 98.4375 79.6875V112.5C98.4375 113.743 98.9314 114.935 99.8104 115.815C100.69 116.694 101.882 117.188 103.125 117.188C104.368 117.188 105.56 116.694 106.44 115.815C107.319 114.935 107.812 113.743 107.812 112.5V79.6875C107.812 78.4443 107.319 77.252 106.44 76.3729C105.56 75.4939 104.368 75 103.125 75ZM18.75 60.9375C17.5068 60.9375 16.3145 61.4314 15.4354 62.3104C14.5564 63.1895 14.0625 64.3818 14.0625 65.625V84.375C14.0625 85.6182 14.5564 86.8105 15.4354 87.6896C16.3145 88.5686 17.5068 89.0625 18.75 89.0625C19.9932 89.0625 21.1855 88.5686 22.0646 87.6896C22.9436 86.8105 23.4375 85.6182 23.4375 84.375V65.625C23.4375 64.3818 22.9436 63.1895 22.0646 62.3104C21.1855 61.4314 19.9932 60.9375 18.75 60.9375ZM46.875 89.0625C45.6318 89.0625 44.4395 89.5564 43.5604 90.4354C42.6814 91.3145 42.1875 92.5068 42.1875 93.75V112.5C42.1875 113.743 42.6814 114.935 43.5604 115.815C44.4395 116.694 45.6318 117.188 46.875 117.188C48.1182 117.188 49.3105 116.694 50.1896 115.815C51.0686 114.935 51.5625 113.743 51.5625 112.5V93.75C51.5625 92.5068 51.0686 91.3145 50.1896 90.4354C49.3105 89.5564 48.1182 89.0625 46.875 89.0625ZM131.25 60.9375C130.007 60.9375 128.815 61.4314 127.935 62.3104C127.056 63.1895 126.562 64.3818 126.562 65.625V84.375C126.562 85.6182 127.056 86.8105 127.935 87.6896C128.815 88.5686 130.007 89.0625 131.25 89.0625C132.493 89.0625 133.685 88.5686 134.565 87.6896C135.444 86.8105 135.938 85.6182 135.938 84.375V65.625C135.938 64.3818 135.444 63.1895 134.565 62.3104C133.685 61.4314 132.493 60.9375 131.25 60.9375Z" fill="#FCFBFF"/>
</g>
</svg>
