<svg fill="none" height="150" viewBox="0 0 150 150" width="150" xmlns="http://www.w3.org/2000/svg"><path d="m0 0h150v150h-150z"/><g stroke="#fcfbff" stroke-linecap="round" stroke-linejoin="round" stroke-width="7"><path d="m75 19.083c-4.0446 0-7.9235 1.6067-10.7834 4.4666-2.8599 2.86-4.4666 6.7389-4.4666 10.7834v40.6667c0 4.0445 1.6067 7.9234 4.4666 10.7834 2.8599 2.8599 6.7388 4.4666 10.7834 4.4666s7.9235-1.6067 10.7834-4.4666c2.8599-2.86 4.4666-6.7389 4.4666-10.7834v-40.6667c0-4.0445-1.6067-7.9234-4.4666-10.7834-2.8599-2.8599-6.7388-4.4666-10.7834-4.4666z"/><path d="m110.584 64.833v10.1667c0 9.4373-3.749 18.488-10.422 25.1613-6.6736 6.673-15.7244 10.422-25.1617 10.422s-18.488-3.749-25.1612-10.422c-6.6732-6.6733-10.4221-15.724-10.4221-25.1613v-10.1667"/><path d="m75 110.583v20.333"/><path d="m54.667 130.917h40.6667"/></g></svg>