<svg xmlns="http://www.w3.org/2000/svg" width="122" height="142" viewBox="0 0 122 142" fill="none">
<path d="M65.6875 5.375V24.125C65.6875 25.3682 65.1936 26.5605 64.3146 27.4396C63.4355 28.3186 62.2432 28.8125 61 28.8125C59.7568 28.8125 58.5645 28.3186 57.6854 27.4396C56.8064 26.5605 56.3125 25.3682 56.3125 24.125V5.375C56.3125 4.1318 56.8064 2.93951 57.6854 2.06044C58.5645 1.18136 59.7568 0.6875 61 0.6875C62.2432 0.6875 63.4355 1.18136 64.3146 2.06044C65.1936 2.93951 65.6875 4.1318 65.6875 5.375ZM89.125 28.8125C87.8818 28.8125 86.6895 29.3064 85.8104 30.1854C84.9314 31.0645 84.4375 32.2568 84.4375 33.5V52.25C84.4375 53.4932 84.9314 54.6855 85.8104 55.5646C86.6895 56.4436 87.8818 56.9375 89.125 56.9375C90.3682 56.9375 91.5605 56.4436 92.4396 55.5646C93.3186 54.6855 93.8125 53.4932 93.8125 52.25V33.5C93.8125 32.2568 93.3186 31.0645 92.4396 30.1854C91.5605 29.3064 90.3682 28.8125 89.125 28.8125ZM61 113.188C59.7568 113.188 58.5645 113.681 57.6854 114.56C56.8064 115.44 56.3125 116.632 56.3125 117.875V136.625C56.3125 137.868 56.8064 139.06 57.6854 139.94C58.5645 140.819 59.7568 141.312 61 141.312C62.2432 141.312 63.4355 140.819 64.3146 139.94C65.1936 139.06 65.6875 137.868 65.6875 136.625V117.875C65.6875 116.632 65.1936 115.44 64.3146 114.56C63.4355 113.681 62.2432 113.188 61 113.188ZM61 42.875C59.7568 42.875 58.5645 43.3689 57.6854 44.2479C56.8064 45.127 56.3125 46.3193 56.3125 47.5625V94.4375C56.3125 95.6807 56.8064 96.873 57.6854 97.7521C58.5645 98.6311 59.7568 99.125 61 99.125C62.2432 99.125 63.4355 98.6311 64.3146 97.7521C65.1936 96.873 65.6875 95.6807 65.6875 94.4375V47.5625C65.6875 46.3193 65.1936 45.127 64.3146 44.2479C63.4355 43.3689 62.2432 42.875 61 42.875ZM32.875 28.8125C31.6318 28.8125 30.4395 29.3064 29.5604 30.1854C28.6814 31.0645 28.1875 32.2568 28.1875 33.5V66.3125C28.1875 67.5557 28.6814 68.748 29.5604 69.6271C30.4395 70.5061 31.6318 71 32.875 71C34.1182 71 35.3105 70.5061 36.1896 69.6271C37.0686 68.748 37.5625 67.5557 37.5625 66.3125V33.5C37.5625 32.2568 37.0686 31.0645 36.1896 30.1854C35.3105 29.3064 34.1182 28.8125 32.875 28.8125ZM89.125 71C87.8818 71 86.6895 71.4939 85.8104 72.3729C84.9314 73.252 84.4375 74.4443 84.4375 75.6875V108.5C84.4375 109.743 84.9314 110.935 85.8104 111.815C86.6895 112.694 87.8818 113.188 89.125 113.188C90.3682 113.188 91.5605 112.694 92.4396 111.815C93.3186 110.935 93.8125 109.743 93.8125 108.5V75.6875C93.8125 74.4443 93.3186 73.252 92.4396 72.3729C91.5605 71.4939 90.3682 71 89.125 71ZM4.75 56.9375C3.5068 56.9375 2.31451 57.4314 1.43544 58.3104C0.55636 59.1895 0.0625 60.3818 0.0625 61.625V80.375C0.0625 81.6182 0.55636 82.8105 1.43544 83.6896C2.31451 84.5686 3.5068 85.0625 4.75 85.0625C5.9932 85.0625 7.18549 84.5686 8.06456 83.6896C8.94364 82.8105 9.4375 81.6182 9.4375 80.375V61.625C9.4375 60.3818 8.94364 59.1895 8.06456 58.3104C7.18549 57.4314 5.9932 56.9375 4.75 56.9375ZM32.875 85.0625C31.6318 85.0625 30.4395 85.5564 29.5604 86.4354C28.6814 87.3145 28.1875 88.5068 28.1875 89.75V108.5C28.1875 109.743 28.6814 110.935 29.5604 111.815C30.4395 112.694 31.6318 113.188 32.875 113.188C34.1182 113.188 35.3105 112.694 36.1896 111.815C37.0686 110.935 37.5625 109.743 37.5625 108.5V89.75C37.5625 88.5068 37.0686 87.3145 36.1896 86.4354C35.3105 85.5564 34.1182 85.0625 32.875 85.0625ZM117.25 56.9375C116.007 56.9375 114.815 57.4314 113.935 58.3104C113.056 59.1895 112.562 60.3818 112.562 61.625V80.375C112.562 81.6182 113.056 82.8105 113.935 83.6896C114.815 84.5686 116.007 85.0625 117.25 85.0625C118.493 85.0625 119.685 84.5686 120.565 83.6896C121.444 82.8105 121.938 81.6182 121.938 80.375V61.625C121.938 60.3818 121.444 59.1895 120.565 58.3104C119.685 57.4314 118.493 56.9375 117.25 56.9375Z" fill="#FCFBFF"/>
</svg>