<svg width="124" height="124" viewBox="0 0 124 124" fill="none" xmlns="http://www.w3.org/2000/svg">
<g filter="url(#filter0_d_1116_1735)">
<rect x="38.1895" y="26" width="48.3108" height="48.3108" rx="24.1554" fill="#E0295D" shape-rendering="crispEdges"/>
<path d="M63.308 40.7824C63.9922 40.7798 64.6763 40.7867 65.3602 40.803L65.5421 40.8096C65.7521 40.8171 65.9593 40.8265 66.2096 40.8377C67.2071 40.8846 67.8877 41.0421 68.4849 41.2737C69.1037 41.5118 69.6249 41.8343 70.1462 42.3555C70.6228 42.8239 70.9916 43.3905 71.2271 44.0158C71.4587 44.613 71.6162 45.2946 71.663 46.2921C71.6743 46.5415 71.6837 46.7496 71.6912 46.9596L71.6968 47.1415C71.7134 47.8251 71.7206 48.5089 71.7184 49.1927L71.7193 49.8921V51.1202C71.7216 51.8043 71.7144 52.4885 71.6977 53.1724L71.6921 53.3543C71.6846 53.5643 71.6752 53.7715 71.664 54.0218C71.6171 55.0193 71.4577 55.6999 71.2271 56.2971C70.9924 56.9231 70.6234 57.4902 70.1462 57.9583C69.6774 58.4349 69.1105 58.8037 68.4849 59.0393C67.8877 59.2708 67.2071 59.4283 66.2096 59.4752C65.9593 59.4865 65.7521 59.4958 65.5421 59.5033L65.3602 59.509C64.6763 59.5256 63.9922 59.5328 63.308 59.5305L62.6087 59.5315H61.3815C60.6973 59.5338 60.0132 59.5266 59.3293 59.5099L59.1474 59.5043C58.9249 59.4962 58.7024 59.4868 58.4799 59.4762C57.4824 59.4293 56.8018 59.2699 56.2037 59.0393C55.5781 58.8043 55.0114 58.4354 54.5434 57.9583C54.0662 57.4899 53.697 56.9229 53.4615 56.2971C53.2299 55.6999 53.0724 55.0193 53.0255 54.0218C53.0151 53.7993 53.0057 53.5768 52.9974 53.3543L52.9927 53.1724C52.9754 52.4885 52.9676 51.8044 52.9693 51.1202V49.1927C52.9667 48.5089 52.9736 47.8251 52.9899 47.1415L52.9965 46.9596C53.004 46.7496 53.0134 46.5415 53.0246 46.2921C53.0715 45.2937 53.229 44.614 53.4605 44.0158C53.6962 43.3902 54.0661 42.8238 54.5443 42.3565C55.012 41.879 55.5783 41.5095 56.2037 41.2737C56.8018 41.0421 57.4815 40.8846 58.4799 40.8377L59.1474 40.8096L59.3293 40.8049C60.0129 40.7876 60.6967 40.7798 61.3805 40.7815L63.308 40.7824ZM62.3443 45.4699C61.7232 45.4611 61.1066 45.5759 60.5302 45.8075C59.9538 46.0391 59.4293 46.3829 58.987 46.819C58.5446 47.2551 58.1934 47.7748 57.9537 48.3478C57.714 48.9208 57.5905 49.5358 57.5905 50.1569C57.5905 50.7781 57.714 51.393 57.9537 51.9661C58.1934 52.5391 58.5446 53.0587 58.987 53.4949C59.4293 53.931 59.9538 54.2748 60.5302 54.5064C61.1066 54.738 61.7232 54.8527 62.3443 54.844C63.5875 54.844 64.7798 54.3501 65.6589 53.471C66.5379 52.592 67.0318 51.3997 67.0318 50.1565C67.0318 48.9133 66.5379 47.721 65.6589 46.8419C64.7798 45.9628 63.5875 45.4699 62.3443 45.4699ZM62.3443 47.3449C62.7179 47.338 63.0891 47.4057 63.4363 47.5438C63.7835 47.682 64.0996 47.888 64.3663 48.1498C64.6329 48.4115 64.8448 48.7238 64.9894 49.0683C65.134 49.4129 65.2085 49.7828 65.2086 50.1565C65.2087 50.5301 65.1343 50.9001 64.9898 51.2446C64.8452 51.5892 64.6335 51.9016 64.3669 52.1634C64.1004 52.4252 63.7843 52.6313 63.4372 52.7697C63.09 52.908 62.7188 52.9757 62.3452 52.969C61.5993 52.969 60.8839 52.6726 60.3565 52.1452C59.829 51.6178 59.5327 50.9024 59.5327 50.1565C59.5327 49.4105 59.829 48.6952 60.3565 48.1677C60.8839 47.6403 61.5993 47.344 62.3452 47.344L62.3443 47.3449ZM67.2662 44.0637C66.9637 44.0758 66.6777 44.2044 66.468 44.4227C66.2583 44.641 66.1412 44.9319 66.1412 45.2346C66.1412 45.5373 66.2583 45.8282 66.468 46.0465C66.6777 46.2648 66.9637 46.3934 67.2662 46.4055C67.577 46.4055 67.875 46.2821 68.0948 46.0623C68.3146 45.8425 68.438 45.5445 68.438 45.2337C68.438 44.9229 68.3146 44.6248 68.0948 44.405C67.875 44.1852 67.577 44.0618 67.2662 44.0618V44.0637Z" fill="#FCFBFF"/>
</g>
<defs>
<filter id="filter0_d_1116_1735" x="0.689453" y="0.5" width="123.311" height="123.311" filterUnits="userSpaceOnUse" color-interpolation-filters="sRGB">
<feFlood flood-opacity="0" result="BackgroundImageFix"/>
<feColorMatrix in="SourceAlpha" type="matrix" values="0 0 0 0 0 0 0 0 0 0 0 0 0 0 0 0 0 0 127 0" result="hardAlpha"/>
<feOffset dy="12"/>
<feGaussianBlur stdDeviation="18.75"/>
<feComposite in2="hardAlpha" operator="out"/>
<feColorMatrix type="matrix" values="0 0 0 0 0.878431 0 0 0 0 0.160784 0 0 0 0 0.364706 0 0 0 0.5 0"/>
<feBlend mode="normal" in2="BackgroundImageFix" result="effect1_dropShadow_1116_1735"/>
<feBlend mode="normal" in="SourceGraphic" in2="effect1_dropShadow_1116_1735" result="shape"/>
</filter>
</defs>
</svg>
