<svg width="124" height="124" viewBox="0 0 0 0" fill="none" xmlns="http://www.w3.org/2000/svg">
<g filter="url(#filter0_d_28_42)">
<rect x="37.9053" y="26" width="48.3108" height="48.3108" rx="24.1554" fill="#E0295D" shape-rendering="crispEdges"/>
<path d="M63.0258 40.7806C63.7099 40.7779 64.3941 40.7848 65.078 40.8012L65.2599 40.8078C65.4699 40.8153 65.6771 40.8246 65.9274 40.8359C66.9249 40.8828 67.6055 41.0403 68.2027 41.2718C68.8214 41.5099 69.3427 41.8324 69.8639 42.3537C70.3405 42.8221 70.7094 43.3886 70.9449 44.014C71.1764 44.6112 71.3339 45.2928 71.3808 46.2903C71.3921 46.5396 71.4014 46.7478 71.4089 46.9578L71.4146 47.1396C71.4312 47.8233 71.4384 48.5071 71.4361 49.1909L71.4371 49.8903V51.1184C71.4394 51.8025 71.4322 52.4866 71.4155 53.1706L71.4099 53.3524C71.4024 53.5624 71.393 53.7696 71.3818 54.0199C71.3349 55.0174 71.1755 55.6981 70.9449 56.2953C70.7102 56.9213 70.3412 57.4883 69.8639 57.9565C69.3952 58.4331 68.8283 58.8019 68.2027 59.0374C67.6055 59.269 66.9249 59.4265 65.9274 59.4734C65.6771 59.4846 65.4699 59.494 65.2599 59.5015L65.078 59.5071C64.3941 59.5238 63.7099 59.531 63.0258 59.5287L62.3264 59.5296H61.0993C60.4151 59.5319 59.731 59.5248 59.0471 59.5081L58.8652 59.5024C58.6426 59.4944 58.4201 59.485 58.1977 59.4743C57.2002 59.4274 56.5196 59.2681 55.9214 59.0374C55.2958 58.8025 54.7292 58.4335 54.2611 57.9565C53.784 57.488 53.4148 56.9211 53.1793 56.2953C52.9477 55.6981 52.7902 55.0174 52.7433 54.0199C52.7329 53.7975 52.7235 53.575 52.7152 53.3524L52.7105 53.1706C52.6932 52.4867 52.6854 51.8025 52.6871 51.1184V49.1909C52.6844 48.5071 52.6913 47.8233 52.7077 47.1396L52.7143 46.9578C52.7218 46.7478 52.7311 46.5396 52.7424 46.2903C52.7893 45.2918 52.9468 44.6121 53.1783 44.014C53.414 43.3883 53.7839 42.8219 54.2621 42.3546C54.7298 41.8772 55.2961 41.5077 55.9214 41.2718C56.5196 41.0403 57.1993 40.8828 58.1977 40.8359L58.8652 40.8078L59.0471 40.8031C59.7307 40.7858 60.4145 40.778 61.0983 40.7796L63.0258 40.7806ZM62.0621 45.4681C61.441 45.4593 60.8243 45.574 60.248 45.8056C59.6716 46.0372 59.147 46.3811 58.7047 46.8172C58.2624 47.2533 57.9112 47.773 57.6715 48.346C57.4317 48.919 57.3083 49.534 57.3083 50.1551C57.3083 50.7763 57.4317 51.3912 57.6715 51.9642C57.9112 52.5373 58.2624 53.0569 58.7047 53.493C59.147 53.9291 59.6716 54.273 60.248 54.5046C60.8243 54.7362 61.441 54.8509 62.0621 54.8421C63.3053 54.8421 64.4975 54.3483 65.3766 53.4692C66.2557 52.5901 66.7496 51.3978 66.7496 50.1546C66.7496 48.9114 66.2557 47.7191 65.3766 46.8401C64.4975 45.961 63.3053 45.4681 62.0621 45.4681ZM62.0621 47.3431C62.4357 47.3362 62.8069 47.4038 63.1541 47.542C63.5012 47.6802 63.8174 47.8862 64.084 48.148C64.3507 48.4097 64.5625 48.722 64.7072 49.0665C64.8518 49.4111 64.9263 49.781 64.9264 50.1546C64.9264 50.5283 64.852 50.8982 64.7075 51.2428C64.563 51.5874 64.3513 51.8997 64.0847 52.1616C63.8181 52.4234 63.5021 52.6295 63.1549 52.7678C62.8078 52.9061 62.4366 52.9739 62.063 52.9671C61.3171 52.9671 60.6017 52.6708 60.0743 52.1434C59.5468 51.6159 59.2505 50.9006 59.2505 50.1546C59.2505 49.4087 59.5468 48.6933 60.0743 48.1659C60.6017 47.6385 61.3171 47.3421 62.063 47.3421L62.0621 47.3431ZM66.9839 44.0618C66.6815 44.0739 66.3955 44.2026 66.1858 44.4209C65.976 44.6391 65.8589 44.9301 65.8589 45.2328C65.8589 45.5354 65.976 45.8264 66.1858 46.0447C66.3955 46.2629 66.6815 46.3916 66.9839 46.4037C67.2947 46.4037 67.5928 46.2802 67.8126 46.0605C68.0324 45.8407 68.1558 45.5426 68.1558 45.2318C68.1558 44.921 68.0324 44.623 67.8126 44.4032C67.5928 44.1834 67.2947 44.0599 66.9839 44.0599V44.0618Z" fill="#FCFBFF"/>
</g>
<defs>
<filter id="filter0_d_28_42" x="0.405273" y="0.5" width="123.311" height="123.311" filterUnits="userSpaceOnUse" color-interpolation-filters="sRGB">
<feFlood flood-opacity="0" result="BackgroundImageFix"/>
<feColorMatrix in="SourceAlpha" type="matrix" values="0 0 0 0 0 0 0 0 0 0 0 0 0 0 0 0 0 0 127 0" result="hardAlpha"/>
<feOffset dy="12"/>
<feGaussianBlur stdDeviation="18.75"/>
<feComposite in2="hardAlpha" operator="out"/>
<feColorMatrix type="matrix" values="0 0 0 0 0.878431 0 0 0 0 0.160784 0 0 0 0 0.364706 0 0 0 0.5 0"/>
<feBlend mode="normal" in2="BackgroundImageFix" result="effect1_dropShadow_28_42"/>
<feBlend mode="normal" in="SourceGraphic" in2="effect1_dropShadow_28_42" result="shape"/>
</filter>
</defs>
</svg>
