<svg width="125" height="124" viewBox="0 0 125 124" fill="none" xmlns="http://www.w3.org/2000/svg">
<g filter="url(#filter0_d_28_38)">
<rect x="38.2837" y="26" width="48.3108" height="48.3108" rx="24.1554" fill="#E0295D" shape-rendering="crispEdges"/>
<path d="M57.0958 43.3924C57.0956 43.9049 56.8917 44.3963 56.5291 44.7585C56.1666 45.1208 55.6749 45.3241 55.1624 45.3238C54.6499 45.3236 54.1585 45.1198 53.7963 44.7572C53.4341 44.3946 53.2307 43.903 53.231 43.3905C53.2312 42.8779 53.4351 42.3865 53.7976 42.0243C54.1602 41.6621 54.6518 41.4587 55.1644 41.459C55.6769 41.4592 56.1683 41.6631 56.5305 42.0257C56.8927 42.3882 57.0961 42.8799 57.0958 43.3924ZM57.1538 46.7548H53.2889V58.8518H57.1538V46.7548ZM63.2603 46.7548H59.4147V58.8518H63.2216V52.5038C63.2216 48.9675 67.8305 48.6389 67.8305 52.5038V58.8518H71.647V51.1897C71.647 45.2282 64.8256 45.4504 63.2216 48.3781L63.2603 46.7548Z" fill="#FCFBFF"/>
</g>
<defs>
<filter id="filter0_d_28_38" x="0.783691" y="0.5" width="123.311" height="123.311" filterUnits="userSpaceOnUse" color-interpolation-filters="sRGB">
<feFlood flood-opacity="0" result="BackgroundImageFix"/>
<feColorMatrix in="SourceAlpha" type="matrix" values="0 0 0 0 0 0 0 0 0 0 0 0 0 0 0 0 0 0 127 0" result="hardAlpha"/>
<feOffset dy="12"/>
<feGaussianBlur stdDeviation="18.75"/>
<feComposite in2="hardAlpha" operator="out"/>
<feColorMatrix type="matrix" values="0 0 0 0 0.878431 0 0 0 0 0.160784 0 0 0 0 0.364706 0 0 0 0.5 0"/>
<feBlend mode="normal" in2="BackgroundImageFix" result="effect1_dropShadow_28_38"/>
<feBlend mode="normal" in="SourceGraphic" in2="effect1_dropShadow_28_38" result="shape"/>
</filter>
</defs>
</svg>
