<svg width="56" height="51" viewBox="0 0 56 51" fill="none" xmlns="http://www.w3.org/2000/svg">
<path d="M49.7706 12.2971C47.86 11.6923 44.2741 13.0098 44.2741 13.0098L36.8875 15.461C36.7941 15.4921 36.693 15.4484 36.6502 15.3589C35.5039 13.0079 33.0925 11.388 30.302 11.388C27.5115 11.388 25.0681 13.0283 23.9305 15.4027C23.9285 15.4066 23.9237 15.4075 23.9198 15.4056L10.9316 6.00043C10.9316 6.00043 10.9258 5.99946 10.9248 6.00043C7.69481 9.23239 7.42645 12.265 10.0964 15.7576C10.1003 15.7634 10.0954 15.7712 10.0886 15.7683L7.30686 14.8533C7.30686 14.8533 7.30102 14.8533 7.29908 14.8562C4.41423 19.6176 6.56985 22.7845 11.4402 25.1637C11.4479 25.1676 11.444 25.1783 11.4363 25.1773L7.65008 24.5696C7.65008 24.5696 7.64328 24.5716 7.6423 24.5755C6.35496 30.914 11.7085 33.7482 17.6814 33.7045C17.6853 33.7045 17.6892 33.7084 17.6882 33.7123C16.3688 42.1276 23.3364 45.9517 27.4813 45.9527C27.4852 45.9527 27.4872 45.9498 27.4872 45.9459L27.4843 43.061C27.4843 43.0562 27.4901 43.0523 27.494 43.0552C29.7838 44.1364 31.3297 42.9414 32.6793 41.5705C32.6822 41.5676 32.6822 41.5637 32.6793 41.5617L29.7692 38.4085C29.7692 38.4085 29.7672 38.3978 29.7731 38.3969C35.2034 37.5655 39.363 32.8741 39.363 27.2114C39.363 25.3591 38.9167 23.5925 38.1281 22.0397C37.5778 20.9565 37.324 19.7528 37.361 18.5384C37.361 18.5082 37.362 18.4791 37.362 18.4509C37.362 18.1825 37.5098 17.9365 37.747 17.8111C37.747 17.8111 41.0869 15.7294 43.3825 14.6948C45.6781 13.6603 47.1327 12.9486 49.7589 12.6685C49.9816 12.651 49.9505 12.3467 49.7706 12.2981V12.2971Z" fill="#E0295D"/>
</svg>
