<svg class="c-logo__icon" fill="none" height="54" viewBox="0 0 54 54" width="54" xmlns="http://www.w3.org/2000/svg"><path d="m48.8126 13.3206c-1.9106-.6048-5.4965.7127-5.4965.7127l-7.3866 2.4512c-.0934.0311-.1945-.0127-.2373-.1021-1.1463-2.3511-3.5577-3.971-6.3482-3.971s-5.2339 1.6403-6.3716 4.0147c-.0019.0039-.0068.0049-.0106.0029l-12.98818-9.40513s-.00583-.00097-.0068 0c-3.23002 3.23193-3.49838 6.26463-.82841 9.75713.00389.0058-.00097.0136-.00778.0107l-2.78178-.9149s-.00584 0-.00778.0029c-2.88485 4.7614-.72923 7.9282 4.14103 10.3074.0078.0039.0039.0146-.0038.0137l-3.78623-.6077s-.0068.0019-.00777.0058c-1.28734 6.3385 4.0662 9.1728 10.0391 9.129.0039 0 .0078.0039.0068.0078-1.3194 8.4154 5.6482 12.2395 9.7931 12.2404.0039 0 .0059-.0029.0059-.0068l-.003-2.8848c0-.0049.0059-.0088.0098-.0059 2.2898 1.0812 3.8357-.1137 5.1853-1.4847.0029-.0029.0029-.0068 0-.0087l-2.9101-3.1532s-.002-.0107.0039-.0117c5.4303-.8313 9.5899-5.5227 9.5899-11.1855 0-1.8522-.4463-3.6189-1.2349-5.1717-.5503-1.0831-.8041-2.2869-.7671-3.5013 0-.0301.001-.0593.001-.0875 0-.2683.1477-.5143.385-.6398 0 0 3.3399-2.0817 5.6355-3.1162 2.2956-1.0346 3.7502-1.7463 6.3764-2.0263.2227-.0175.1916-.3219.0117-.3705z" fill="#e0295d"/></svg>