<svg width="124" height="124" viewBox="0 0 124 124" fill="none" xmlns="http://www.w3.org/2000/svg">
<g filter="url(#filter0_d_28_40)">
<rect x="37.5945" y="26" width="48.3108" height="48.3108" rx="24.1554" fill="#E0295D" shape-rendering="crispEdges"/>
<path d="M63.0893 40.7804L65.7418 40.7804C65.9334 41.6183 66.4651 42.6754 67.3951 43.7241C68.3064 44.7516 69.514 45.4679 71.125 45.4679V47.8117C68.7767 47.8117 67.0121 46.8583 65.7679 45.6687V53.671C65.7679 56.9071 62.7698 59.5304 59.0714 59.5304C55.3731 59.5304 52.375 56.9071 52.375 53.671C52.375 50.435 55.3731 47.8117 59.0714 47.8117V50.1554C56.8524 50.1554 55.0536 51.7294 55.0536 53.671C55.0536 55.6127 56.8524 57.1866 59.0714 57.1866C61.2904 57.1866 63.0893 55.6126 63.0893 53.671V40.7804Z" fill="white"/>
</g>
<defs>
<filter id="filter0_d_28_40" x="0.0944824" y="0.5" width="123.311" height="123.311" filterUnits="userSpaceOnUse" color-interpolation-filters="sRGB">
<feFlood flood-opacity="0" result="BackgroundImageFix"/>
<feColorMatrix in="SourceAlpha" type="matrix" values="0 0 0 0 0 0 0 0 0 0 0 0 0 0 0 0 0 0 127 0" result="hardAlpha"/>
<feOffset dy="12"/>
<feGaussianBlur stdDeviation="18.75"/>
<feComposite in2="hardAlpha" operator="out"/>
<feColorMatrix type="matrix" values="0 0 0 0 0.878431 0 0 0 0 0.160784 0 0 0 0 0.364706 0 0 0 0.5 0"/>
<feBlend mode="normal" in2="BackgroundImageFix" result="effect1_dropShadow_28_40"/>
<feBlend mode="normal" in="SourceGraphic" in2="effect1_dropShadow_28_40" result="shape"/>
</filter>
</defs>
</svg>
