<svg width="1920" height="670" viewBox="0 0 1920 670" fill="none" xmlns="http://www.w3.org/2000/svg">
<g filter="url(#filter0_d_3704_1792)">
<mask id="path-1-inside-1_3704_1792" fill="white">
<path d="M9.47925 693.685C1.90649 718.93 -16.4844 737.863 -44.6113 751.537C-72.7383 765.211 -108.438 772.574 -150.628 772.574C-209.046 772.574 -251.236 756.796 -279.363 725.241C-298.836 703.152 -310.736 673.699 -317.226 634.781L210.695 632.677V577.98C210.695 500.143 195.55 433.876 165.26 378.127C134.969 322.379 92.7783 278.201 37.6062 247.697C-17.5659 217.193 -83.5559 201.415 -160.364 201.415C-232.845 201.415 -297.754 217.193 -354.008 249.8C-410.262 281.356 -454.616 325.534 -485.988 382.335C-517.361 438.083 -533.588 503.298 -533.588 576.928C-533.588 649.507 -517.361 713.67 -484.907 770.47C-452.452 826.219 -408.098 870.397 -350.762 903.005C-294.509 934.56 -229.6 951.39 -156.037 951.39C-56.511 951.39 26.7881 928.249 93.8601 880.916C160.932 834.634 200.959 771.522 212.859 693.685H9.47925ZM-250.155 400.216C-226.355 386.542 -196.064 379.179 -158.201 379.179C-112.765 379.179 -77.0654 390.749 -50.0203 412.838C-24.0569 434.927 -11.075 465.431 -11.075 502.246H-313.981C-311.818 489.624 -307.49 477.002 -303.163 466.483C-291.263 435.979 -273.954 413.89 -250.155 400.216Z"/>
<path d="M809.988 693.685C802.415 718.93 784.024 737.863 755.897 751.537C727.77 765.211 692.071 772.574 649.88 772.574C591.462 772.574 549.272 756.796 521.145 725.241C501.673 703.152 489.772 673.7 483.282 634.781L1011.2 632.677V577.98C1011.2 500.143 996.058 433.876 965.768 378.127C935.477 322.379 893.287 278.201 838.114 247.697C782.942 217.193 716.952 201.415 640.144 201.415C567.663 201.415 502.754 217.193 446.5 249.8C390.246 281.356 345.893 325.534 314.52 382.335C283.148 438.083 266.921 503.298 266.921 576.929C266.921 649.507 283.148 713.67 315.602 770.47C348.056 826.219 392.41 870.397 449.746 903.005C507.082 935.612 570.908 951.39 644.471 951.39C743.998 951.39 827.296 928.249 894.368 880.916C961.44 834.634 1001.47 771.523 1013.37 693.685H809.988ZM550.354 400.216C574.154 386.542 604.444 379.179 642.307 379.179C687.743 379.179 723.443 390.749 750.488 412.839C776.452 434.928 789.433 465.431 789.433 502.246H486.527C489.773 489.624 493.018 477.002 497.345 466.483C509.245 435.979 526.554 413.89 550.354 400.216Z"/>
<path d="M2315.92 932.464H1705.78V751.545L2031.4 406.535H1686.3V225.615H2315.92V406.535L1981.64 751.545H2315.92V932.464Z"/>
<path d="M-740.216 224.555L-860.297 646.35L-978.214 224.555H-1208.64L-1335.21 646.35L-1446.64 224.555H-1705.19V407.578H-1621.89L-1448.8 932.456H-1230.27L-1095.05 478.053L-965.232 932.456H-757.525L-502.219 224.555H-740.216Z"/>
<path d="M1160.54 224.56H1038.3V407.583H1160.54V654.77C1160.54 713.674 1172.44 767.319 1196.24 813.601C1220.04 858.831 1255.74 894.594 1302.26 920.89C1349.86 946.135 1409.36 958.757 1478.6 958.757C1505.64 958.757 1532.69 955.602 1560.81 948.239C1588.94 942.98 1613.82 934.565 1632.21 922.994L1635.46 920.89V724.193L1624.64 731.556C1608.41 742.075 1587.86 750.49 1564.06 755.749C1540.26 761.008 1517.54 764.164 1496.99 764.164C1461.29 764.164 1432.08 753.645 1411.52 733.66C1390.97 713.674 1380.15 684.222 1380.15 647.407V406.532H1617.07V223.508H1381.23V45.7441H1160.54V224.56Z"/>
<path d="M-2226.62 224.571H-2348.87V407.594H-2226.62V654.781C-2226.62 713.685 -2214.72 767.33 -2190.92 813.612C-2167.12 858.842 -2131.42 894.605 -2084.9 920.901C-2037.3 946.146 -1977.81 958.768 -1908.57 958.768C-1881.52 958.768 -1854.48 955.612 -1826.35 948.249C-1798.23 942.99 -1773.34 934.575 -1754.95 923.005L-1751.71 920.901V724.204L-1762.53 731.566C-1778.75 742.085 -1799.31 750.5 -1823.11 755.759C-1846.91 761.019 -1869.62 764.174 -1890.18 764.174C-1925.88 764.174 -1955.09 753.656 -1975.64 733.67C-1996.2 713.685 -2007.01 684.233 -2007.01 647.418V406.542H-1778.75V223.519H-2005.93V45.7548H-2226.62V224.571Z"/>
</mask>
<path d="M9.47925 693.685C1.90649 718.93 -16.4844 737.863 -44.6113 751.537C-72.7383 765.211 -108.438 772.574 -150.628 772.574C-209.046 772.574 -251.236 756.796 -279.363 725.241C-298.836 703.152 -310.736 673.699 -317.226 634.781L210.695 632.677V577.98C210.695 500.143 195.55 433.876 165.26 378.127C134.969 322.379 92.7783 278.201 37.6062 247.697C-17.5659 217.193 -83.5559 201.415 -160.364 201.415C-232.845 201.415 -297.754 217.193 -354.008 249.8C-410.262 281.356 -454.616 325.534 -485.988 382.335C-517.361 438.083 -533.588 503.298 -533.588 576.928C-533.588 649.507 -517.361 713.67 -484.907 770.47C-452.452 826.219 -408.098 870.397 -350.762 903.005C-294.509 934.56 -229.6 951.39 -156.037 951.39C-56.511 951.39 26.7881 928.249 93.8601 880.916C160.932 834.634 200.959 771.522 212.859 693.685H9.47925ZM-250.155 400.216C-226.355 386.542 -196.064 379.179 -158.201 379.179C-112.765 379.179 -77.0654 390.749 -50.0203 412.838C-24.0569 434.927 -11.075 465.431 -11.075 502.246H-313.981C-311.818 489.624 -307.49 477.002 -303.163 466.483C-291.263 435.979 -273.954 413.89 -250.155 400.216Z" stroke="#E0295D" stroke-width="12.8595" mask="url(#path-1-inside-1_3704_1792)"/>
<path d="M809.988 693.685C802.415 718.93 784.024 737.863 755.897 751.537C727.77 765.211 692.071 772.574 649.88 772.574C591.462 772.574 549.272 756.796 521.145 725.241C501.673 703.152 489.772 673.7 483.282 634.781L1011.2 632.677V577.98C1011.2 500.143 996.058 433.876 965.768 378.127C935.477 322.379 893.287 278.201 838.114 247.697C782.942 217.193 716.952 201.415 640.144 201.415C567.663 201.415 502.754 217.193 446.5 249.8C390.246 281.356 345.893 325.534 314.52 382.335C283.148 438.083 266.921 503.298 266.921 576.929C266.921 649.507 283.148 713.67 315.602 770.47C348.056 826.219 392.41 870.397 449.746 903.005C507.082 935.612 570.908 951.39 644.471 951.39C743.998 951.39 827.296 928.249 894.368 880.916C961.44 834.634 1001.47 771.523 1013.37 693.685H809.988ZM550.354 400.216C574.154 386.542 604.444 379.179 642.307 379.179C687.743 379.179 723.443 390.749 750.488 412.839C776.452 434.928 789.433 465.431 789.433 502.246H486.527C489.773 489.624 493.018 477.002 497.345 466.483C509.245 435.979 526.554 413.89 550.354 400.216Z" stroke="#E0295D" stroke-width="12.8595" mask="url(#path-1-inside-1_3704_1792)"/>
<path d="M2315.92 932.464H1705.78V751.545L2031.4 406.535H1686.3V225.615H2315.92V406.535L1981.64 751.545H2315.92V932.464Z" stroke="#E0295D" stroke-width="12.8595" mask="url(#path-1-inside-1_3704_1792)"/>
<path d="M-740.216 224.555L-860.297 646.35L-978.214 224.555H-1208.64L-1335.21 646.35L-1446.64 224.555H-1705.19V407.578H-1621.89L-1448.8 932.456H-1230.27L-1095.05 478.053L-965.232 932.456H-757.525L-502.219 224.555H-740.216Z" stroke="#E0295D" stroke-width="12.8595" mask="url(#path-1-inside-1_3704_1792)"/>
<path d="M1160.54 224.56H1038.3V407.583H1160.54V654.77C1160.54 713.674 1172.44 767.319 1196.24 813.601C1220.04 858.831 1255.74 894.594 1302.26 920.89C1349.86 946.135 1409.36 958.757 1478.6 958.757C1505.64 958.757 1532.69 955.602 1560.81 948.239C1588.94 942.98 1613.82 934.565 1632.21 922.994L1635.46 920.89V724.193L1624.64 731.556C1608.41 742.075 1587.86 750.49 1564.06 755.749C1540.26 761.008 1517.54 764.164 1496.99 764.164C1461.29 764.164 1432.08 753.645 1411.52 733.66C1390.97 713.674 1380.15 684.222 1380.15 647.407V406.532H1617.07V223.508H1381.23V45.7441H1160.54V224.56Z" stroke="#E0295D" stroke-width="12.8595" mask="url(#path-1-inside-1_3704_1792)"/>
<path d="M-2226.62 224.571H-2348.87V407.594H-2226.62V654.781C-2226.62 713.685 -2214.72 767.33 -2190.92 813.612C-2167.12 858.842 -2131.42 894.605 -2084.9 920.901C-2037.3 946.146 -1977.81 958.768 -1908.57 958.768C-1881.52 958.768 -1854.48 955.612 -1826.35 948.249C-1798.23 942.99 -1773.34 934.575 -1754.95 923.005L-1751.71 920.901V724.204L-1762.53 731.566C-1778.75 742.085 -1799.31 750.5 -1823.11 755.759C-1846.91 761.019 -1869.62 764.174 -1890.18 764.174C-1925.88 764.174 -1955.09 753.656 -1975.64 733.67C-1996.2 713.685 -2007.01 684.233 -2007.01 647.418V406.542H-1778.75V223.519H-2005.93V45.7548H-2226.62V224.571Z" stroke="#E0295D" stroke-width="12.8595" mask="url(#path-1-inside-1_3704_1792)"/>
</g>
<defs>
<filter id="filter0_d_3704_1792" x="-2416" y="0.090889" width="4799.06" height="1047.3" filterUnits="userSpaceOnUse" color-interpolation-filters="sRGB">
<feFlood flood-opacity="0" result="BackgroundImageFix"/>
<feColorMatrix in="SourceAlpha" type="matrix" values="0 0 0 0 0 0 0 0 0 0 0 0 0 0 0 0 0 0 127 0" result="hardAlpha"/>
<feOffset dy="21.4839"/>
<feGaussianBlur stdDeviation="33.5686"/>
<feColorMatrix type="matrix" values="0 0 0 0 0.878431 0 0 0 0 0.160784 0 0 0 0 0.364706 0 0 0 0.5 0"/>
<feBlend mode="normal" in2="BackgroundImageFix" result="effect1_dropShadow_3704_1792"/>
<feBlend mode="normal" in="SourceGraphic" in2="effect1_dropShadow_3704_1792" result="shape"/>
</filter>
</defs>
</svg>
