<svg width="78" height="77" viewBox="0 0 78 77" fill="none" xmlns="http://www.w3.org/2000/svg">
<path d="M5.52124 27.8849C5.52124 19.8075 5.52124 15.7687 7.09322 12.6835C8.47598 9.96973 10.6824 7.76333 13.3962 6.38058C16.4814 4.80859 20.5201 4.80859 28.5976 4.80859H49.7509C57.8284 4.80859 61.8671 4.80859 64.9523 6.38058C67.6661 7.76333 69.8725 9.96973 71.2553 12.6835C72.8273 15.7687 72.8273 19.8075 72.8273 27.8849V49.0383C72.8273 57.1157 72.8273 61.1545 71.2553 64.2397C69.8725 66.9535 67.6661 69.1599 64.9523 70.5426C61.8671 72.1146 57.8284 72.1146 49.7509 72.1146H28.5976C20.5201 72.1146 16.4814 72.1146 13.3962 70.5426C10.6824 69.1599 8.47598 66.9535 7.09322 64.2397C5.52124 61.1545 5.52124 57.1157 5.52124 49.0383V27.8849Z" fill="#E0295D"/>
<path d="M57.5299 22.4515C54.1066 20.9468 50.4463 19.8531 46.6197 19.2305C46.1495 20.0287 45.6005 21.1024 45.2221 21.9566C41.1541 21.3818 37.1235 21.3818 33.1305 21.9566C32.7521 21.1024 32.1904 20.0287 31.7164 19.2305C27.8855 19.8531 24.221 20.9507 20.7978 22.4595C13.8931 32.2622 12.0214 41.8216 12.9572 51.2451C17.5368 54.4581 21.9749 56.4098 26.3382 57.687C27.4155 56.2941 28.3763 54.8134 29.204 53.2527C27.6276 52.6899 26.1177 51.9955 24.691 51.1891C25.0695 50.9258 25.4397 50.6504 25.7974 50.367C34.4991 54.1907 43.9534 54.1907 52.5511 50.367C52.9128 50.6504 53.2831 50.9258 53.6574 51.1891C52.2266 51.9994 50.7126 52.6939 49.1361 53.2567C49.9638 54.8134 50.9205 56.2981 52.0019 57.6911C56.3693 56.4138 60.8116 54.4621 65.3912 51.2451C66.4894 40.3208 63.5153 30.8493 57.5299 22.4515ZM30.3895 45.4497C27.7774 45.4497 25.6352 43.1585 25.6352 40.3687C25.6352 37.5787 27.7316 35.2837 30.3895 35.2837C33.0474 35.2837 35.1894 37.5747 35.1437 40.3687C35.1479 43.1585 33.0474 45.4497 30.3895 45.4497ZM47.959 45.4497C45.3469 45.4497 43.2047 43.1585 43.2047 40.3687C43.2047 37.5787 45.3011 35.2837 47.959 35.2837C50.6168 35.2837 52.759 37.5747 52.7132 40.3687C52.7132 43.1585 50.6168 45.4497 47.959 45.4497Z" fill="white"/>
</svg>
