<svg width="36" height="36" viewBox="0 0 36 36" fill="none" xmlns="http://www.w3.org/2000/svg" aria-hidden="true">
<path fill-rule="evenodd" d="M18 36C27.9411 36 36 27.9411 36 18C36 8.05887 27.9411 0 18 0C8.05887 0 0 8.05887 0 18C0 27.9411 8.05887 36 18 36ZM25.1189 14.056C25.783 13.9767 26.4158 13.8007 27.0045 13.5393C26.5645 14.1973 26.0077 14.7753 25.3663 15.2387C25.5743 19.8553 22.1304 25.0027 16.0347 25.0027C14.181 25.0027 12.4548 24.4593 11.0018 23.528C12.7435 23.7333 14.4824 23.25 15.8627 22.168C14.4251 22.1413 13.2129 21.1927 12.7955 19.8887C13.3102 19.9873 13.8163 19.958 14.2784 19.8327C12.6995 19.516 11.6093 18.0933 11.6453 16.5727C12.0874 16.8187 12.5941 16.966 13.1315 16.9833C11.67 16.006 11.2559 14.076 12.116 12.6007C13.7356 14.5867 16.1547 15.8933 18.8825 16.03C18.4038 13.9773 19.9613 12 22.081 12C23.0252 12 23.8793 12.3987 24.4774 13.0367C25.2256 12.8893 25.9283 12.616 26.5625 12.24C26.3177 13.0067 25.797 13.65 25.1189 14.056Z" fill="currentColor"/>
</svg>
