<svg width="36" height="36" viewBox="0 0 36 36" fill="none" xmlns="http://www.w3.org/2000/svg" aria-hidden="true">
<path fill-rule="evenodd" d="M18 36C27.9411 36 36 27.9411 36 18C36 8.05887 27.9411 0 18 0C8.05887 0 0 8.05887 0 18C0 27.9411 8.05887 36 18 36ZM21.2333 11.4887C20.3893 11.45 20.136 11.442 18 11.442C15.864 11.442 15.6113 11.45 14.7673 11.488C12.5973 11.5867 11.5873 12.616 11.488 14.7673C11.45 15.6113 11.4413 15.864 11.4413 18C11.4413 20.1367 11.4493 20.3893 11.488 21.2327C11.5867 23.38 12.594 24.4133 14.7673 24.5127C15.6107 24.5513 15.864 24.5593 18 24.5593C20.1373 24.5593 20.3893 24.5513 21.2333 24.5127C23.4033 24.414 24.4133 23.3833 24.5127 21.2333C24.5507 20.39 24.5587 20.1373 24.5587 18.0007C24.5587 15.8647 24.5513 15.6113 24.5127 14.768C24.414 12.616 23.4013 11.5873 21.2333 11.4887ZM14.702 10.048C15.5553 10.0093 15.8273 10 18 10C20.1727 10 20.4453 10.0093 21.2993 10.0487C24.2073 10.182 25.8213 11.7993 25.952 14.702C25.9907 15.5553 26 15.8273 26 18C26 20.1727 25.9907 20.4453 25.9513 21.2987C25.82 24.2067 24.2013 25.8187 21.2987 25.952C20.4453 25.9907 20.1727 26 18 26C15.8273 26 15.5553 25.9907 14.7013 25.952C11.7933 25.8187 10.1813 24.204 10.048 21.2987C10.0093 20.4453 10 20.1727 10 18C10 15.8273 10.0093 15.5553 10.0487 14.7013C10.182 11.7933 11.7967 10.1813 14.702 10.048ZM13.892 18C13.892 15.7313 15.7313 13.892 18 13.892C20.2687 13.892 22.108 15.7313 22.108 18C22.108 20.2693 20.2687 22.1087 18 22.1087C15.7313 22.1087 13.892 20.2687 13.892 18ZM15.3333 18C15.3333 19.4733 16.5273 20.6667 18 20.6667C19.4727 20.6667 20.6667 19.4733 20.6667 18C20.6667 16.5273 19.4727 15.3333 18 15.3333C16.5273 15.3333 15.3333 16.5273 15.3333 18ZM21.31 13.73C21.31 13.2 21.74 12.77 22.2707 12.77C22.8007 12.77 23.23 13.2 23.23 13.73C23.23 14.26 22.8007 14.69 22.2707 14.69C21.74 14.69 21.31 14.26 21.31 13.73Z" fill="currentColor"/>
</svg>
