<svg width="49" height="49" viewBox="0 0 49 49" fill="none" xmlns="http://www.w3.org/2000/svg">
<rect width="48.3108" height="48.3108" rx="24.1554" fill="var(--color-primary)"/>
<path d="M25.4948 14.7804L28.1474 14.7804C28.3389 15.6183 28.8706 16.6754 29.8007 17.7241C30.712 18.7516 31.9195 19.4679 33.5305 19.4679V21.8117C31.1822 21.8117 29.4177 20.8583 28.1734 19.6687V27.671C28.1734 30.9071 25.1753 33.5304 21.4769 33.5304C17.7786 33.5304 14.7805 30.9071 14.7805 27.671C14.7805 24.435 17.7786 21.8117 21.4769 21.8117V24.1554C19.2579 24.1554 17.4591 25.7294 17.4591 27.671C17.4591 29.6127 19.2579 31.1866 21.4769 31.1866C23.6959 31.1866 25.4948 29.6126 25.4948 27.671V14.7804Z" fill="white"/>
</svg>
