<svg width="77" height="77" viewBox="0 0 77 77" fill="none" xmlns="http://www.w3.org/2000/svg">
<path d="M55.3173 25.2389C55.3173 27.2303 53.7029 28.8446 51.7116 28.8446C49.7202 28.8446 48.1059 27.2303 48.1059 25.2389C48.1059 23.2476 49.7202 21.6332 51.7116 21.6332C53.7029 21.6332 55.3173 23.2476 55.3173 25.2389Z" fill="#E0295D"/>
<path fill-rule="evenodd" clip-rule="evenodd" d="M38.4907 50.4787C45.1286 50.4787 50.5097 45.0976 50.5097 38.4597C50.5097 31.8219 45.1286 26.4408 38.4907 26.4408C31.8529 26.4408 26.4718 31.8219 26.4718 38.4597C26.4718 45.0976 31.8529 50.4787 38.4907 50.4787ZM38.4907 45.6711C42.4735 45.6711 45.7021 42.4425 45.7021 38.4597C45.7021 34.477 42.4735 31.2484 38.4907 31.2484C34.508 31.2484 31.2794 34.477 31.2794 38.4597C31.2794 42.4425 34.508 45.6711 38.4907 45.6711Z" fill="#E0295D"/>
<path fill-rule="evenodd" clip-rule="evenodd" d="M14.4529 37.4982C14.4529 29.4207 14.4529 25.382 16.0249 22.2968C17.4076 19.583 19.614 17.3766 22.3278 15.9939C25.413 14.4219 29.4518 14.4219 37.5292 14.4219H39.4523C47.5297 14.4219 51.5685 14.4219 54.6537 15.9939C57.3675 17.3766 59.5739 19.583 60.9566 22.2968C62.5286 25.382 62.5286 29.4207 62.5286 37.4982V39.4213C62.5286 47.4987 62.5286 51.5375 60.9566 54.6227C59.5739 57.3365 57.3675 59.5429 54.6537 60.9256C51.5685 62.4976 47.5297 62.4976 39.4523 62.4976H37.5292C29.4518 62.4976 25.413 62.4976 22.3278 60.9256C19.614 59.5429 17.4076 57.3365 16.0249 54.6227C14.4529 51.5375 14.4529 47.4987 14.4529 39.4213V37.4982ZM37.5292 19.2294H39.4523C43.5703 19.2294 46.3697 19.2332 48.5336 19.41C50.6413 19.5822 51.7192 19.8943 52.4711 20.2774C54.2803 21.1993 55.7512 22.6702 56.673 24.4794C57.0562 25.2313 57.3683 26.3092 57.5405 28.4169C57.7173 30.5807 57.721 33.3802 57.721 37.4982V39.4213C57.721 43.5393 57.7173 46.3387 57.5405 48.5026C57.3683 50.6103 57.0562 51.6882 56.673 52.4401C55.7512 54.2493 54.2803 55.7202 52.4711 56.642C51.7192 57.0252 50.6413 57.3373 48.5336 57.5095C46.3697 57.6863 43.5703 57.69 39.4523 57.69H37.5292C33.4112 57.69 30.6117 57.6863 28.4479 57.5095C26.3402 57.3373 25.2623 57.0252 24.5104 56.642C22.7012 55.7202 21.2303 54.2493 20.3084 52.4401C19.9253 51.6882 19.6132 50.6103 19.441 48.5026C19.2642 46.3387 19.2605 43.5393 19.2605 39.4213V37.4982C19.2605 33.3802 19.2642 30.5807 19.441 28.4169C19.6132 26.3092 19.9253 25.2313 20.3084 24.4794C21.2303 22.6702 22.7012 21.1993 24.5104 20.2774C25.2623 19.8943 26.3402 19.5822 28.4479 19.41C30.6117 19.2332 33.4112 19.2294 37.5292 19.2294Z" fill="#E0295D"/>
</svg>
