<svg width="78" height="77" viewBox="0 0 78 77" fill="none" xmlns="http://www.w3.org/2000/svg">
<rect x="5.15479" y="4.80859" width="67.306" height="67.306" rx="33.653" fill="#E0295D"/>
<path d="M30.6794 23.298C30.6794 25.5445 28.7323 27.3656 26.3303 27.3656C23.9284 27.3656 21.9812 25.5445 21.9812 23.298C21.9812 21.0516 23.9284 19.2305 26.3303 19.2305C28.7323 19.2305 30.6794 21.0516 30.6794 23.298Z" fill="white"/>
<path d="M22.576 30.3554H30.0103V52.8835H22.576V30.3554Z" fill="white"/>
<path d="M41.9797 30.3554H34.5453V52.8835H41.9797C41.9797 52.8835 41.9797 45.7913 41.9797 41.357C41.9797 38.6954 42.8885 36.0222 46.5147 36.0222C50.6127 36.0222 50.5881 39.5053 50.569 42.2037C50.544 45.7309 50.6036 49.3303 50.6036 52.8835H58.038V40.9937C57.975 33.4017 55.9968 29.9035 49.4884 29.9035C45.6234 29.9035 43.2276 31.6582 41.9797 33.2457V30.3554Z" fill="white"/>
</svg>
