<svg width="78" height="77" viewBox="0 0 78 77" fill="none" xmlns="http://www.w3.org/2000/svg">
<circle cx="24.734" cy="24.6161" r="21.5379" fill="white"/>
<path d="M38.5798 72.1146C57.1658 72.1146 72.2328 57.0476 72.2328 38.4616C72.2328 19.8756 57.1658 4.80859 38.5798 4.80859C19.9937 4.80859 4.92676 19.8756 4.92676 38.4616C4.92676 52.1154 13.058 63.87 24.7423 69.1472C24.758 68.7831 24.7757 68.4493 24.7908 68.163C24.8114 67.7728 24.8273 67.4709 24.8273 67.3012C24.8273 66.29 25.515 61.2744 25.515 61.2744L29.7216 44.003C29.0744 42.9513 28.589 40.7267 28.589 39.0279C28.589 31.1809 32.9575 29.4821 35.627 29.4821C39.0247 29.4821 39.7932 33.1628 39.7932 35.8729C39.7932 37.3064 39.0497 39.5501 38.2845 41.8591C37.4735 44.3062 36.6383 46.8266 36.6383 48.5332C36.6383 51.85 39.9146 53.5084 42.1797 53.5084C48.166 53.5084 53.667 45.985 53.667 38.4616C53.667 30.9382 50.148 21.8373 38.6202 21.8373C27.0924 21.8373 21.9151 30.6146 21.9151 37.329C21.9151 41.8592 23.6139 45.176 24.4633 45.7423C24.706 45.958 25.1186 46.6241 24.8273 47.5625C24.5361 48.5009 24.0049 50.5961 23.7757 51.5264C23.7487 51.7421 23.4925 52.1088 22.6836 51.85C21.6724 51.5264 15.2411 47.4816 15.2411 37.329C15.2411 27.1765 23.2094 15.3656 38.6202 15.3656C54.031 15.3656 61.9185 25.7204 61.9185 38.4616C61.9185 51.2028 51.6041 59.3329 43.7572 59.3329C37.4796 59.3329 35.0203 56.5285 34.5754 55.1263L32.1889 64.2272C31.6255 65.737 30.5743 68.4506 29.278 70.8126C32.2322 71.6605 35.353 72.1146 38.5798 72.1146Z" fill="#E0295D"/>
</svg>
