<svg width="78" height="77" viewBox="0 0 78 77" fill="none" xmlns="http://www.w3.org/2000/svg">
<path fill-rule="evenodd" clip-rule="evenodd" d="M51.4909 16.6448C51.4519 16.892 51.4316 17.1456 51.4316 17.404C51.4316 20.0134 53.498 22.1287 56.0469 22.1287C58.5958 22.1287 60.6622 20.0134 60.6622 17.404C60.6622 14.7946 58.5958 12.6793 56.0469 12.6793C54.9111 12.6793 53.8711 13.0993 53.0671 13.7959L41.0817 10.7695L36.7498 28.5078C30.9872 28.896 25.8045 30.6826 21.8948 33.3798C20.7848 32.2653 19.2639 31.578 17.5863 31.578C14.1877 31.578 11.4326 34.3985 11.4326 37.8776C11.4326 40.2988 12.7669 42.401 14.7238 43.4556C14.5824 44.207 14.5095 44.9735 14.5095 45.7521C14.5095 55.3198 25.5299 63.0759 39.1242 63.0759C52.7186 63.0759 63.739 55.3198 63.739 45.7521C63.739 44.9735 63.666 44.207 63.5246 43.4556C65.4816 42.401 66.8159 40.2988 66.8159 37.8776C66.8159 34.3985 64.0608 31.578 60.6622 31.578C58.9845 31.578 57.4637 32.2653 56.3537 33.3798C52.0942 30.4413 46.3238 28.5836 39.9385 28.4376L43.3205 14.5892L51.4909 16.6448ZM28.3553 47.327C30.9042 47.327 32.9705 45.2117 32.9705 42.6023C32.9705 39.9929 30.9042 37.8776 28.3553 37.8776C25.8063 37.8776 23.74 39.9929 23.74 42.6023C23.74 45.2117 25.8063 47.327 28.3553 47.327ZM49.8932 47.327C52.4421 47.327 54.5085 45.2117 54.5085 42.6023C54.5085 39.9929 52.4421 37.8776 49.8932 37.8776C47.3443 37.8776 45.2779 39.9929 45.2779 42.6023C45.2779 45.2117 47.3443 47.327 49.8932 47.327ZM29.2086 52.3161C28.5017 51.8337 27.5465 52.0292 27.0752 52.7529C26.6039 53.4766 26.795 54.4545 27.5019 54.9369C30.8498 57.2218 34.987 58.3642 39.1242 58.3642C43.2615 58.3642 47.3987 57.2218 50.7466 54.9369C51.4535 54.4545 51.6445 53.4766 51.1732 52.7529C50.7019 52.0292 49.7468 51.8337 49.0398 52.3161C46.2087 54.2483 42.6665 55.2144 39.1242 55.2144C37.0236 55.2144 34.9229 54.8746 32.9705 54.1951C31.6307 53.7288 30.3608 53.1025 29.2086 52.3161Z" fill="#E0295D"/>
</svg>
