<svg width="78" height="77" viewBox="0 0 78 77" fill="none" xmlns="http://www.w3.org/2000/svg">
<path fill-rule="evenodd" clip-rule="evenodd" d="M29.2162 21.0858C27.2905 23.4962 26.6308 26.3583 26.6308 28.0593C26.6308 29.6364 26.7644 31.8273 26.8771 33.3983C26.9146 33.9201 26.8076 34.5283 26.3519 35.0111C25.8907 35.4998 25.2633 35.6584 24.7027 35.6584C23.8934 35.6584 23.2778 35.3623 22.884 35.1729L22.8383 35.1509C22.3989 34.9403 22.1679 34.8423 21.8283 34.8423C21.5194 34.8423 21.1422 34.975 20.8431 35.217C20.5399 35.4623 20.452 35.7024 20.452 35.8398C20.452 36.1195 20.5552 36.3194 20.9344 36.5646C21.3823 36.8543 22.0205 37.0721 22.8571 37.3465L22.9299 37.3704C23.6247 37.598 24.4852 37.88 25.1643 38.3032C25.9265 38.7784 26.6308 39.542 26.6308 40.7185C26.6308 41.0269 26.5456 41.3237 26.4655 41.5485C26.3786 41.7924 26.2613 42.0501 26.1297 42.3071C25.8661 42.822 25.5096 43.4035 25.1178 43.982C24.3403 45.13 23.352 46.3713 22.5307 47.1615C21.7003 47.9603 20.4515 48.8582 19.1884 49.5587C18.5523 49.9115 17.8882 50.2279 17.2478 50.459C16.6746 50.6658 16.0568 50.8279 15.4641 50.8532C15.4493 50.8594 15.433 50.8668 15.4159 50.8754C15.3886 50.8892 15.363 50.904 15.3408 50.919L15.3293 50.9269C15.3316 50.9429 15.3341 50.9547 15.3363 50.9631C15.341 50.9816 15.3466 50.9949 15.3542 51.0086C15.3775 51.0506 15.4141 51.0975 15.5623 51.2563L15.6012 51.298C15.8683 51.5854 16.5264 51.9582 17.5696 52.2916C18.5632 52.6092 19.738 52.8385 20.848 52.9438C21.4034 52.9965 21.7235 53.3435 21.859 53.5305C21.9984 53.723 22.0782 53.9262 22.1248 54.0611C22.215 54.3221 22.2831 54.6437 22.3368 54.8973L22.345 54.9358C22.4183 55.2815 22.4824 55.5771 22.5661 55.8241C22.5957 55.9114 22.623 55.9779 22.6465 56.0268C22.6994 56.0328 22.7806 56.0386 22.8983 56.0381C23.4087 56.036 23.9197 55.96 24.4254 55.899C25.2344 55.8015 26.2357 55.6809 27.2957 55.6809C29.7543 55.6809 31.3766 56.7894 32.9438 57.8602L33.0317 57.9203C33.6117 58.3163 34.1928 58.7128 34.8464 59.099C36.6883 60.1874 38.0897 60.1795 39.1135 60.1738C39.1856 60.1734 39.2558 60.173 39.3241 60.173C39.3918 60.173 39.4616 60.1734 39.5333 60.1737C40.5685 60.1793 42.0169 60.1871 43.8583 59.099C44.5119 58.7128 45.0931 58.3163 45.673 57.9203L45.761 57.8602C47.3281 56.7894 48.9504 55.6809 51.409 55.6809C52.4691 55.6809 53.4703 55.8015 54.2794 55.899L54.3038 55.9019C54.9581 55.9808 55.4368 56.0366 55.8065 56.0381C55.9241 56.0386 56.0053 56.0328 56.0583 56.0268C56.0817 55.9779 56.109 55.9114 56.1386 55.8241C56.2223 55.5771 56.2864 55.2815 56.3598 54.9358L56.3679 54.8973C56.4217 54.6436 56.4898 54.3221 56.5799 54.0611C56.6265 53.9262 56.7063 53.723 56.8458 53.5305C56.9812 53.3435 57.3013 52.9965 57.8567 52.9438C58.9667 52.8385 60.1416 52.6092 61.1351 52.2916C62.1783 51.9582 62.8364 51.5854 63.1035 51.2981L63.1424 51.2564C63.2906 51.0976 63.3273 51.0506 63.3505 51.0086C63.3581 50.9949 63.3637 50.9816 63.3685 50.9631C63.3706 50.9547 63.3731 50.9429 63.3754 50.9269L63.364 50.919C63.3417 50.904 63.3161 50.8892 63.2888 50.8754C63.2717 50.8668 63.2554 50.8594 63.2406 50.8532C62.648 50.8279 62.0301 50.6658 61.4569 50.459C60.8165 50.2279 60.1524 49.9115 59.5163 49.5587C58.2533 48.8582 57.0045 47.9603 56.1741 47.1615C55.3527 46.3713 54.3644 45.13 53.587 43.982C53.1951 43.4035 52.8386 42.822 52.575 42.3071C52.4435 42.0501 52.3261 41.7924 52.2392 41.5485C52.1592 41.3237 52.0739 41.0269 52.0739 40.7185C52.0739 39.542 52.7782 38.7784 53.5405 38.3032C54.2195 37.88 55.0801 37.598 55.7748 37.3704L55.8476 37.3465C56.6842 37.0721 57.3224 36.8543 57.7703 36.5646C58.1495 36.3194 58.2527 36.1195 58.2527 35.8398C58.2527 35.7024 58.1648 35.4623 57.8617 35.217C57.5626 34.975 57.1854 34.8423 56.8764 34.8423C56.5368 34.8423 56.3058 34.9403 55.8665 35.1509L55.8207 35.1729C55.4269 35.3623 54.8114 35.6584 54.002 35.6584C53.4415 35.6584 52.814 35.4998 52.3528 35.0111C51.8971 34.5283 51.7901 33.9201 51.8276 33.3983C51.9403 31.8273 52.0739 29.6364 52.0739 28.0593C52.0739 26.3539 51.4258 23.4915 49.5145 21.0828C47.6474 18.7299 44.5261 16.7422 39.3806 16.7422C34.2346 16.7422 31.0978 18.7305 29.2162 21.0858Z" fill="#E0295D"/>
</svg>
