<svg width="73" height="73" viewBox="0 0 73 73" fill="none" xmlns="http://www.w3.org/2000/svg">
<circle cx="36.4927" cy="36.0575" r="31.5497" fill="#E0295D"/>
<path d="M50.8351 48.7281C50.2961 49.5833 49.1462 49.8228 48.2478 49.3096C41.1688 45.2044 32.293 44.2807 21.8001 46.5386C20.794 46.7438 19.7878 46.1623 19.5722 45.2044C19.3566 44.2464 19.9675 43.2885 20.9737 43.0833C32.4367 40.5859 42.2827 41.6464 50.1883 46.2649C51.0867 46.778 51.3741 47.8728 50.8351 48.7281ZM54.5004 40.928C53.8177 41.9885 52.3803 42.2964 51.2663 41.6806C43.1811 36.9253 30.8556 35.5569 21.2971 38.328C20.0394 38.6701 18.7457 38.0201 18.3864 36.8569C18.027 35.6595 18.7098 34.428 19.9675 34.0858C30.8915 30.9385 44.4747 32.4437 53.7817 37.8832C54.8238 38.499 55.1832 39.8675 54.5004 40.928ZM54.8238 32.7858C45.1216 27.3121 29.1308 26.799 19.8597 29.4674C18.3864 29.9121 16.8053 29.1253 16.3381 27.6884C15.871 26.2858 16.7334 24.7805 18.2067 24.3358C28.8433 21.2568 46.523 21.8726 57.6627 28.1674C58.9922 28.92 59.4234 30.5621 58.6329 31.8279C57.8783 33.1279 56.1534 33.5727 54.8238 32.7858Z" fill="white"/>
</svg>
