<svg width="78" height="77" viewBox="0 0 78 77" fill="none" xmlns="http://www.w3.org/2000/svg">
<path opacity="0.65" d="M20.8888 47.5811C21.2644 44.4708 22.54 42.7294 24.9439 40.9443C28.3833 38.5266 32.6798 39.8942 32.6798 39.8942V31.781C33.7243 31.7543 34.7692 31.8163 35.8023 31.9661V42.4069C35.8023 42.4069 31.5072 41.0393 28.0677 43.4583C25.6652 45.2422 24.3869 46.9848 24.0126 50.0951C24.0009 51.784 24.3178 53.9916 25.7773 55.9005C25.4165 55.7155 25.0487 55.5047 24.6739 55.268C21.4587 53.1091 20.8731 49.87 20.8888 47.5811ZM53.5423 16.7798C51.1762 14.1871 50.2815 11.5694 49.958 9.73047H52.9345C52.9345 9.73047 52.341 14.5521 56.6661 19.2938L56.7261 19.3575C55.5604 18.6243 54.4914 17.7588 53.5423 16.7798ZM67.8806 24.1304V34.3613C67.8806 34.3613 64.0824 34.2125 61.2716 33.4974C57.347 32.4974 54.8244 30.9635 54.8244 30.9635C54.8244 30.9635 53.0819 29.8696 52.941 29.7934V50.9201C52.941 52.0965 52.6188 55.0342 51.6367 57.4844C50.3545 60.6897 48.3759 62.7936 48.012 63.2236C48.012 63.2236 45.6055 66.0676 41.36 67.9828C37.5331 69.7104 34.1732 69.6667 33.1689 69.7104C33.1689 69.7104 27.3608 69.9405 22.1344 66.5439C21.0042 65.7953 19.9492 64.9474 18.9832 64.0112L19.0092 64.03C24.2369 67.4265 30.0437 67.1965 30.0437 67.1965C31.0494 67.1527 34.4093 67.1965 38.2348 65.4688C42.4765 63.5537 44.8868 60.7097 44.8868 60.7097C45.2468 60.2796 47.2346 58.1757 48.5115 54.9692C49.4911 52.5203 49.8158 49.5813 49.8158 48.4049V27.2807C49.9567 27.3582 51.698 28.452 51.698 28.452C51.698 28.452 54.2218 29.9871 58.1465 30.986C60.9586 31.701 64.7555 31.8498 64.7555 31.8498V23.8329C66.0546 24.1242 67.1619 24.2029 67.8806 24.1304Z" fill="#E0295D"/>
<path d="M64.7568 23.8329V31.8473C64.7568 31.8473 60.9599 31.6985 58.1478 30.9835C54.2231 29.9834 51.6993 28.4495 51.6993 28.4495C51.6993 28.4495 49.958 27.3557 49.8171 27.2782V48.4074C49.8171 49.5838 49.495 52.5228 48.5128 54.9717C47.2307 58.1782 45.252 60.2822 44.8881 60.7122C44.8881 60.7122 42.4804 63.5562 38.2361 65.4713C34.4106 67.199 31.0507 67.1552 30.045 67.199C30.045 67.199 24.2382 67.429 19.0105 64.0325L18.9844 64.0137C18.4325 63.4793 17.913 62.915 17.4284 62.3236C15.7602 60.2897 14.7376 57.8845 14.4806 57.1981C14.4802 57.1952 14.4802 57.1923 14.4806 57.1894C14.0672 55.9968 13.1985 53.1328 13.3172 50.3588C13.5272 45.4647 15.2489 42.4607 15.7041 41.7081C16.9097 39.6559 18.4777 37.8198 20.3383 36.2814C21.9802 34.954 23.8413 33.8978 25.8451 33.1562C28.0114 32.2854 30.331 31.8187 32.6797 31.781V39.8942C32.6797 39.8942 28.3833 38.5316 24.9452 40.9443C22.5413 42.7294 21.2657 44.4708 20.89 47.5811C20.8744 49.87 21.46 53.1091 24.6726 55.2692C25.0473 55.5068 25.4151 55.7176 25.776 55.9018C26.3372 56.6313 27.0203 57.267 27.7977 57.7832C30.9359 59.7696 33.5654 59.9084 36.9279 58.6183C39.17 57.7557 40.8578 55.8118 41.6404 53.6579C42.1321 52.3127 42.1256 50.9589 42.1256 49.5588V9.73047H49.9515C50.275 11.5694 51.1697 14.1871 53.5357 16.7798C54.4849 17.7588 55.5539 18.6243 56.7196 19.3575C57.0639 19.7138 58.8247 21.4752 61.0851 22.5565C62.2539 23.1155 63.4859 23.5437 64.7568 23.8329V23.8329Z" fill="#E0295D"/>
<path opacity="0.65" d="M25.8454 33.1545C23.8415 33.8961 21.9805 34.9523 20.3385 36.2798C18.4773 37.8216 16.9097 39.6616 15.7056 41.7177C15.2504 42.4678 13.5287 45.4743 13.3187 50.3684C13.2 53.1424 14.0687 56.0064 14.4822 57.199C14.4817 57.2019 14.4817 57.2048 14.4822 57.2077C14.743 57.8878 15.7617 60.293 17.4299 62.3332C17.9145 62.9246 18.434 63.4889 18.986 64.0233C17.2176 62.8511 15.6404 61.4339 14.3061 59.818C12.6522 57.8015 11.6322 55.4213 11.3662 54.7188C11.3659 54.7138 11.3659 54.7088 11.3662 54.7038V54.695C10.9514 53.5037 10.0801 50.6384 10.2014 47.8607C10.4114 42.9666 12.1331 39.9626 12.5883 39.21C13.792 37.1536 15.3597 35.3136 17.2212 33.772C18.8628 32.4441 20.7239 31.3879 22.7281 30.6468C23.9781 30.1497 25.2804 29.783 26.6123 29.5529C28.6196 29.2171 30.6697 29.188 32.6865 29.4667V31.7794C30.3356 31.8162 28.0136 32.283 25.8454 33.1545Z" fill="#E0295D"/>
<path opacity="0.65" d="M49.958 9.72615H42.1321V49.5557C42.1321 50.9558 42.1321 52.3059 41.6469 53.6548C40.8565 55.8075 39.1753 57.7514 36.9345 58.6139C33.5706 59.9091 30.9411 59.7653 27.8043 57.7789C27.0255 57.265 26.3407 56.6314 25.7773 55.9037C28.4499 57.2701 30.842 57.2463 33.8054 56.1062C36.0449 55.2437 37.7288 53.2998 38.5166 51.1458C39.0096 49.8007 39.0031 48.4469 39.0031 47.048V7.21094H49.8093C49.8093 7.21094 49.688 8.20102 49.958 9.72615ZM64.7568 21.6121V23.8286C63.4881 23.539 62.2584 23.1107 61.0917 22.5522C58.8313 21.4709 57.0705 19.7095 56.7261 19.3532C57.1257 19.6046 57.5403 19.8334 57.9678 20.0383C60.716 21.3534 63.4225 21.7459 64.7568 21.6121Z" fill="#E0295D"/>
</svg>
