<svg width="73" height="73" viewBox="0 0 73 73" fill="none" xmlns="http://www.w3.org/2000/svg">
<path d="M26.9671 63.1012C19.6769 63.1012 12.8812 60.9808 7.16125 57.3222C12.0176 57.6365 20.5881 56.8839 25.9189 51.7991C17.8996 51.4312 14.2831 45.2808 13.8113 42.6524C14.4927 42.9152 17.7424 43.2306 19.5768 42.4947C10.3521 40.1817 8.93689 32.0863 9.25137 29.6156C10.981 30.8247 13.9162 31.2452 15.0693 31.1401C6.47346 24.9897 9.56585 15.7378 11.0858 13.7402C17.2545 22.2864 26.4994 27.0862 37.9366 27.3532C37.7209 26.4074 37.6071 25.4228 37.6071 24.4114C37.6071 17.1534 43.4736 11.2695 50.7104 11.2695C54.4915 11.2695 57.8986 12.8758 60.2903 15.445C62.817 14.8529 66.6196 13.4669 68.4786 12.2683C67.5416 15.6326 64.6244 18.4392 62.8598 19.4794C62.8744 19.5148 62.8454 19.4438 62.8598 19.4794C64.4098 19.2449 68.6038 18.4389 70.2606 17.3148C69.4413 19.2048 66.3485 22.3474 63.8103 24.1067C64.2826 44.9332 48.3482 63.1012 26.9671 63.1012Z" fill="#E0295D"/>
</svg>
