<svg width="78" height="77" viewBox="0 0 78 77" fill="none" xmlns="http://www.w3.org/2000/svg">
<path d="M67.5642 38.4587C67.5642 54.3896 54.6496 67.3042 38.7187 67.3042C32.6424 67.3042 27.0048 65.4253 22.3553 62.2169L12.4956 64.6818L15.0793 54.9929C11.7985 50.311 9.87329 44.6097 9.87329 38.4587C9.87329 22.5278 22.7878 9.61328 38.7187 9.61328C54.6496 9.61328 67.5642 22.5278 67.5642 38.4587Z" fill="#E0295D"/>
<path d="M30.3053 22.8392C29.5052 21.232 28.2778 21.3743 27.0378 21.3743C24.8217 21.3743 21.3662 24.0288 21.3662 28.969C21.3662 33.0177 23.1503 37.4497 29.1621 44.0796C34.9639 50.4779 42.5872 53.7877 48.9159 53.6751C55.2446 53.5624 56.5467 48.1163 56.5467 46.2771C56.5467 45.4619 56.0408 45.0552 55.6923 44.9447C53.5357 43.9097 49.558 41.9811 48.653 41.6188C47.7479 41.2564 47.2754 41.7465 46.9816 42.0131C46.1608 42.7953 44.5339 45.1004 43.9769 45.6188C43.4198 46.1373 42.5893 45.8749 42.2437 45.6789C40.9719 45.1686 37.5237 43.6348 34.7751 40.9703C31.3758 37.6751 31.1763 36.5413 30.5358 35.5322C30.0235 34.7248 30.3994 34.2295 30.587 34.013C31.3194 33.1679 32.3307 31.8632 32.7843 31.2148C33.2378 30.5665 32.8777 29.5821 32.6617 28.969C31.7326 26.3322 30.9455 24.1248 30.3053 22.8392Z" fill="white"/>
</svg>
