<svg width="78" height="77" viewBox="0 0 78 77" fill="none" xmlns="http://www.w3.org/2000/svg">
<path d="M5.8812 23.8955C6.19016 19.1389 10.0144 15.4112 14.7751 15.1753C21.669 14.8338 31.5223 14.4219 38.9465 14.4219C46.3706 14.4219 56.224 14.8338 63.1178 15.1753C67.8786 15.4112 71.7028 19.1389 72.0117 23.8955C72.3077 28.4526 72.5995 34.06 72.5995 38.4597C72.5995 42.8595 72.3077 48.4669 72.0117 53.024C71.7028 57.7806 67.8786 61.5083 63.1178 61.7441C56.224 62.0857 46.3706 62.4976 38.9465 62.4976C31.5223 62.4976 21.669 62.0857 14.7751 61.7441C10.0144 61.5083 6.19016 57.7806 5.8812 53.024C5.58519 48.4669 5.29346 42.8595 5.29346 38.4597C5.29346 34.06 5.58519 28.4526 5.8812 23.8955Z" fill="#E0295D"/>
<path d="M31.7351 28.8438V48.074L50.9654 38.4589L31.7351 28.8438Z" fill="white"/>
</svg>
