<svg class="c-logo__text" fill="none" height="25" viewBox="0 0 117 25" width="117" xmlns="http://www.w3.org/2000/svg"><g fill="#e0295d"><path d="m59.1513 17.687c-.1899.6512-.6512 1.1668-1.3566 1.5195-.7055.3527-1.6009.5427-2.6591.5427-1.4652 0-2.5235-.407-3.2289-1.221-.4884-.5699-.7869-1.3296-.9497-2.3335l13.2412-.0543v-1.4109c0-2.0079-.3799-3.7173-1.1396-5.15543-.7598-1.43808-1.818-2.57769-3.2018-3.36457-1.3838-.78687-3.039-1.19388-4.9654-1.19388-1.818 0-3.446.40701-4.857 1.24815-1.4109.81401-2.5234 1.95362-3.3102 3.41883-.7869 1.4381-1.1939 3.1204-1.1939 5.0197 0 1.8722.407 3.5274 1.221 4.9926.814 1.4381 1.9265 2.5777 3.3646 3.4188 1.4109.814 3.0389 1.2482 4.884 1.2482 2.4963 0 4.5856-.597 6.2679-1.818 1.6822-1.1939 2.6862-2.8219 2.9846-4.8298h-5.1011zm-6.512-7.5431c.5969-.35277 1.3566-.5427 2.3063-.5427 1.1396 0 2.035.29847 2.7134.8683.6512.5698.9768 1.3567.9768 2.3063h-7.5974c.0543-.3256.1628-.6512.2713-.9225.2985-.7869.7326-1.3567 1.3296-1.7094z"/><path d="m79.2295 17.687c-.19.6512-.6513 1.1668-1.3567 1.5195-.7055.3527-1.6009.5427-2.6591.5427-1.4652 0-2.5234-.407-3.2289-1.221-.4884-.5699-.7869-1.3296-.9497-2.3335l13.2412-.0543v-1.4109c0-2.0079-.3799-3.7173-1.1396-5.15543-.7598-1.43808-1.818-2.57769-3.2018-3.36457-1.3838-.78687-3.0389-1.19388-4.9654-1.19388-1.818 0-3.446.40701-4.8569 1.24815-1.411.81401-2.5235 1.95362-3.3103 3.41883-.7869 1.4381-1.1939 3.1204-1.1939 5.0197 0 1.8722.407 3.5274 1.221 4.9926.814 1.4381 1.9265 2.5777 3.3646 3.4188 1.4381.8412 3.0389 1.2482 4.884 1.2482 2.4963 0 4.5856-.597 6.2679-1.818 1.6823-1.1939 2.6862-2.8219 2.9847-4.8298h-5.1011zm-6.5121-7.5431c.5969-.35277 1.3567-.5427 2.3063-.5427 1.1397 0 2.0351.29847 2.7134.8683.6512.5698.9768 1.3567.9768 2.3063h-7.5974c.0814-.3256.1628-.6512.2713-.9225.2985-.7869.7327-1.3567 1.3296-1.7094z"/><path d="m117.001 23.8744h-15.304v-4.667l8.168-8.8998h-8.656v-4.66698h15.792v4.66698l-8.385 8.8998h8.385z"/><path d="m40.3477 5.61328-3.0118 10.88052-2.9576-10.88052h-5.7795l-3.1746 10.88052-2.7947-10.88052h-6.485v4.72122h2.0893l4.3414 13.5397h5.481l3.3917-11.7217 3.256 11.7217h5.2096l6.4036-18.26092z"/><path d="m88.0221 1.02713v4.58558h-3.066v4.72119h3.066v6.3764c0 1.5195.2985 2.9033.8955 4.0972.5969 1.1668 1.4923 2.0893 2.659 2.7676 1.1939.6512 2.6863.9768 4.4228.9768.6784 0 1.3567-.0814 2.0622-.2713.7054-.1357 1.3295-.3527 1.7908-.6512l.0814-.0543v-5.0739l-.2713.1899c-.407.2713-.9226.4884-1.5195.6241-.597.1356-1.1668.217-1.6823.217-.8954 0-1.628-.2713-2.1436-.7868-.5155-.5156-.7868-1.2753-.7868-2.225v-6.2136h5.9422v-4.72123h-5.9151v-4.58557h-5.5353z"/><path d="m3.06609 1.02713v4.58558h-3.06609v4.72119h3.06609v6.3764c0 1.5195.29847 2.9033.89541 4.0972.59694 1.1668 1.49235 2.0893 2.65909 2.7676 1.19388.6512 2.68623.9768 4.42281.9768.6783 0 1.3566-.0814 2.0621-.2713.7055-.1357 1.3296-.3527 1.7908-.6512l.0814-.0543v-5.0739l-.2713.1899c-.407.2713-.9225.4884-1.5195.6241-.5969.1356-1.1667.217-1.6823.217-.8954 0-1.62798-.2713-2.14352-.7868-.51553-.5156-.78687-1.2753-.78687-2.225v-6.2136h5.72519v-4.72123h-5.69806v-4.58557h-5.53525z"/></g></svg>