<svg width="100%" height="100%" viewBox="0 0 1440 919" fill="none" xmlns="http://www.w3.org/2000/svg">
<g opacity="1">
<mask id="path-1-outside-1_1729_2726" maskUnits="userSpaceOnUse" x="-145.865" y="0" width="4535" height="919" fill="black">
<rect fill="white" x="-145.865" width="4535" height="919"/>
<path d="M2151.92 649.171C2144.6 674.289 2126.8 693.651 2099.59 707.256C2072.38 720.862 2037.84 728.188 1997.03 728.188C1940.51 728.188 1899.7 712.489 1872.48 681.092C1853.65 659.113 1842.13 628.762 1835.85 590.038H2346.59V534.569C2346.59 457.122 2331.94 391.186 2302.63 335.717C2273.33 280.248 2232.51 236.291 2179.13 205.94C2125.76 175.589 2061.92 159.89 1987.61 159.89C1917.49 159.89 1854.69 175.589 1800.27 208.033C1745.85 239.431 1702.94 283.388 1672.59 339.904C1642.23 395.373 1626.54 460.261 1626.54 533.522C1626.54 605.737 1642.23 669.579 1673.63 726.095C1705.03 781.564 1747.94 825.521 1803.41 857.965C1857.83 889.363 1920.63 906.108 1991.79 906.108C2088.08 906.108 2168.67 883.083 2233.56 835.986C2298.45 789.937 2337.17 726.618 2348.68 649.171H2151.92ZM1900.74 357.695C1923.77 344.09 1953.07 336.764 1989.7 336.764C2033.66 336.764 2068.2 348.276 2094.36 370.255C2119.48 392.233 2132.04 422.584 2132.04 459.215H1838.99C1841.09 446.656 1845.27 434.097 1849.46 423.631C1860.97 393.28 1877.72 371.301 1900.74 357.695Z"/>
<path d="M2926.39 648.647C2919.07 673.765 2901.27 693.651 2874.06 707.256C2846.85 720.862 2812.31 728.188 2771.5 728.188C2714.98 728.188 2674.16 712.489 2646.95 681.092C2628.11 659.113 2616.6 629.809 2610.32 591.085L3121.06 588.992V534.569C3121.06 457.122 3106.4 391.186 3077.1 335.717C3047.8 280.248 3006.98 236.291 2953.6 205.94C2900.23 175.589 2836.39 159.89 2762.08 159.89C2691.96 159.89 2629.16 175.589 2574.74 208.033C2520.31 239.431 2477.41 283.388 2447.05 339.904C2416.7 395.373 2401 460.261 2401 533.522C2401 605.737 2416.7 669.579 2448.1 726.095C2479.5 781.564 2522.41 825.521 2577.88 857.965C2633.35 890.409 2695.1 906.108 2766.26 906.108C2862.55 906.108 2943.14 883.083 3008.03 835.986C3072.91 789.937 3111.64 727.141 3123.15 649.694H2926.39V648.647ZM2675.21 357.695C2698.24 344.09 2727.54 336.764 2764.17 336.764C2808.13 336.764 2842.66 348.276 2868.83 370.255C2893.95 392.233 2906.51 422.584 2906.51 459.215H2613.46C2616.6 446.656 2619.74 434.097 2623.93 423.631C2635.44 393.28 2652.19 371.301 2675.21 357.695Z"/>
<path d="M4383.26 887.269H3783.56V707.26L4108.01 364.892H3783.56V183.936H4383.26V364.892L4059.86 707.26H4383.26V887.269Z"/>
<path d="M1426.62 183.936L1310.45 602.593L1196.37 183.936H973.447L850.996 602.593L743.197 183.936H493.063V364.892H573.65L741.104 887.269H952.515L1083.34 435.139L1208.93 887.269H1409.87L1656.87 183.936H1426.62Z"/>
<path d="M301.229 913.432C230.874 913.432 172.403 900.597 125.817 874.927C79.231 848.306 44.0536 811.703 20.2851 765.116C-2.53261 718.53 -13.9415 665.764 -13.9415 606.818V5H202.827V599.688C202.827 637.717 213.285 667.19 234.202 688.106C256.069 709.023 285.066 719.481 321.194 719.481C341.16 719.481 363.027 716.629 386.795 710.924C410.564 705.22 431.005 697.138 448.118 686.68V879.205C430.054 889.663 407.236 897.744 379.665 903.449C352.093 910.104 325.948 913.432 301.229 913.432ZM448.118 364.892H-140.865V183.936H448.118V364.892Z"/>
<path d="M3578.86 913.432C3508.51 913.432 3450.04 900.597 3403.45 874.927C3356.87 848.306 3321.69 811.702 3297.92 765.116C3275.1 718.53 3263.69 665.764 3263.69 606.818V5H3480.46V599.688C3480.46 637.717 3490.92 667.19 3511.84 688.106C3533.7 709.023 3562.7 719.481 3598.83 719.481C3618.8 719.481 3640.66 716.628 3664.43 710.924C3688.2 705.22 3708.64 697.138 3725.75 686.68V879.205C3707.69 889.663 3684.87 897.744 3657.3 903.449C3629.73 910.104 3603.58 913.432 3578.86 913.432ZM3725.75 364.892H3136.77V183.936H3725.75V364.892Z"/>
</mask>
<path d="M2151.92 649.171C2144.6 674.289 2126.8 693.651 2099.59 707.256C2072.38 720.862 2037.84 728.188 1997.03 728.188C1940.51 728.188 1899.7 712.489 1872.48 681.092C1853.65 659.113 1842.13 628.762 1835.85 590.038H2346.59V534.569C2346.59 457.122 2331.94 391.186 2302.63 335.717C2273.33 280.248 2232.51 236.291 2179.13 205.94C2125.76 175.589 2061.92 159.89 1987.61 159.89C1917.49 159.89 1854.69 175.589 1800.27 208.033C1745.85 239.431 1702.94 283.388 1672.59 339.904C1642.23 395.373 1626.54 460.261 1626.54 533.522C1626.54 605.737 1642.23 669.579 1673.63 726.095C1705.03 781.564 1747.94 825.521 1803.41 857.965C1857.83 889.363 1920.63 906.108 1991.79 906.108C2088.08 906.108 2168.67 883.083 2233.56 835.986C2298.45 789.937 2337.17 726.618 2348.68 649.171H2151.92ZM1900.74 357.695C1923.77 344.09 1953.07 336.764 1989.7 336.764C2033.66 336.764 2068.2 348.276 2094.36 370.255C2119.48 392.233 2132.04 422.584 2132.04 459.215H1838.99C1841.09 446.656 1845.27 434.097 1849.46 423.631C1860.97 393.28 1877.72 371.301 1900.74 357.695Z" stroke="#E0295D" stroke-width="6" mask="url(#path-1-outside-1_1729_2726)"/>
<path d="M2926.39 648.647C2919.07 673.765 2901.27 693.651 2874.06 707.256C2846.85 720.862 2812.31 728.188 2771.5 728.188C2714.98 728.188 2674.16 712.489 2646.95 681.092C2628.11 659.113 2616.6 629.809 2610.32 591.085L3121.06 588.992V534.569C3121.06 457.122 3106.4 391.186 3077.1 335.717C3047.8 280.248 3006.98 236.291 2953.6 205.94C2900.23 175.589 2836.39 159.89 2762.08 159.89C2691.96 159.89 2629.16 175.589 2574.74 208.033C2520.31 239.431 2477.41 283.388 2447.05 339.904C2416.7 395.373 2401 460.261 2401 533.522C2401 605.737 2416.7 669.579 2448.1 726.095C2479.5 781.564 2522.41 825.521 2577.88 857.965C2633.35 890.409 2695.1 906.108 2766.26 906.108C2862.55 906.108 2943.14 883.083 3008.03 835.986C3072.91 789.937 3111.64 727.141 3123.15 649.694H2926.39V648.647ZM2675.21 357.695C2698.24 344.09 2727.54 336.764 2764.17 336.764C2808.13 336.764 2842.66 348.276 2868.83 370.255C2893.95 392.233 2906.51 422.584 2906.51 459.215H2613.46C2616.6 446.656 2619.74 434.097 2623.93 423.631C2635.44 393.28 2652.19 371.301 2675.21 357.695Z" stroke="#E0295D" stroke-width="6" mask="url(#path-1-outside-1_1729_2726)"/>
<path d="M4383.26 887.269H3783.56V707.26L4108.01 364.892H3783.56V183.936H4383.26V364.892L4059.86 707.26H4383.26V887.269Z" stroke="#E0295D" stroke-width="6" mask="url(#path-1-outside-1_1729_2726)"/>
<path d="M1426.62 183.936L1310.45 602.593L1196.37 183.936H973.447L850.996 602.593L743.197 183.936H493.063V364.892H573.65L741.104 887.269H952.515L1083.34 435.139L1208.93 887.269H1409.87L1656.87 183.936H1426.62Z" stroke="#E0295D" stroke-width="6" mask="url(#path-1-outside-1_1729_2726)"/>
<path d="M301.229 913.432C230.874 913.432 172.403 900.597 125.817 874.927C79.231 848.306 44.0536 811.703 20.2851 765.116C-2.53261 718.53 -13.9415 665.764 -13.9415 606.818V5H202.827V599.688C202.827 637.717 213.285 667.19 234.202 688.106C256.069 709.023 285.066 719.481 321.194 719.481C341.16 719.481 363.027 716.629 386.795 710.924C410.564 705.22 431.005 697.138 448.118 686.68V879.205C430.054 889.663 407.236 897.744 379.665 903.449C352.093 910.104 325.948 913.432 301.229 913.432ZM448.118 364.892H-140.865V183.936H448.118V364.892Z" stroke="#E0295D" stroke-width="6" mask="url(#path-1-outside-1_1729_2726)"/>
<path d="M3578.86 913.432C3508.51 913.432 3450.04 900.597 3403.45 874.927C3356.87 848.306 3321.69 811.702 3297.92 765.116C3275.1 718.53 3263.69 665.764 3263.69 606.818V5H3480.46V599.688C3480.46 637.717 3490.92 667.19 3511.84 688.106C3533.7 709.023 3562.7 719.481 3598.83 719.481C3618.8 719.481 3640.66 716.628 3664.43 710.924C3688.2 705.22 3708.64 697.138 3725.75 686.68V879.205C3707.69 889.663 3684.87 897.744 3657.3 903.449C3629.73 910.104 3603.58 913.432 3578.86 913.432ZM3725.75 364.892H3136.77V183.936H3725.75V364.892Z" stroke="#E0295D" stroke-width="6" mask="url(#path-1-outside-1_1729_2726)"/>
</g>
</svg>
