<svg width="100%" viewBox="0 0 1920 1746" fill="none" xmlns="http://www.w3.org/2000/svg">
<path opacity="0.05" d="M1386.77 514.527L1386.73 514.547C1375.59 520.471 1368.65 532.043 1368.65 544.659C1368.65 545.25 1368.64 545.855 1368.62 546.497C1368.61 547.119 1368.6 547.773 1368.6 548.441C1366.98 601.869 1378.16 654.849 1402.41 702.539C1436.72 770.017 1456.13 846.793 1456.13 927.29C1456.13 1173.36 1275.2 1377.24 1038.98 1413.36L1038.97 1413.36L1038.95 1413.37C1038 1413.53 1037.37 1414.13 1037.04 1414.71C1036.77 1415.2 1036.71 1415.66 1036.69 1415.89C1036.67 1416.15 1036.68 1416.36 1036.69 1416.49C1036.7 1416.56 1036.7 1416.63 1036.71 1416.68C1036.71 1416.7 1036.72 1416.72 1036.72 1416.74L1036.73 1416.77L1036.73 1416.78L1036.73 1416.79L1036.73 1416.79L1036.73 1416.79C1036.73 1416.79 1036.73 1416.79 1039.19 1416.34L1036.73 1416.79L1036.86 1417.51L1037.35 1418.04L1163.15 1554.2C1134.11 1583.53 1103.22 1610.53 1067.56 1624.71C1031.47 1639.06 990.305 1640.36 940.909 1617.09C939.867 1616.5 938.761 1616.77 938.117 1617.17C937.431 1617.6 936.792 1618.44 936.792 1619.55V1619.55L936.918 1743.34C847.199 1742.63 727.605 1701.09 637.227 1614.55C546.211 1527.4 484.781 1394.58 513.47 1211.67C513.666 1210.64 513.229 1209.79 512.782 1209.3C512.322 1208.8 511.597 1208.39 510.712 1208.39H510.703L510.694 1208.39C380.45 1209.34 257.279 1178.93 173.758 1114.08C90.8359 1049.7 46.7315 951.178 73.8392 814.71L237.278 840.917L237.321 840.923L237.364 840.929C238.884 841.119 240.036 840.113 240.394 838.993C240.784 837.776 240.317 836.294 238.961 835.617L238.95 835.612L238.94 835.607C132.641 783.729 56.4831 723.493 22.4383 650.713C-11.3464 578.489 -3.92115 493.299 58.0265 390.454L177.916 429.848C179.164 430.306 180.475 429.82 181.163 428.814C181.8 427.885 181.836 426.628 181.175 425.637L181.13 425.57L181.081 425.506C122.941 349.53 97.0426 278.886 102.965 209.891C108.851 141.324 146.206 73.8765 215.701 4.01651L781.987 413.677L782.153 413.797L782.335 413.888C783.403 414.422 785.297 414.359 786.156 412.643L786.165 412.624L786.174 412.605C835.508 309.738 941.476 238.677 1062.48 238.677C1183.5 238.677 1288.07 308.85 1337.78 410.71C1340.19 415.721 1345.9 418.207 1351.19 416.444L1674.13 309.385L1674.17 309.373L1674.21 309.359L1673.35 307.012C1674.21 309.359 1674.21 309.359 1674.21 309.359L1674.21 309.357L1674.23 309.35L1674.32 309.32L1674.65 309.199C1674.94 309.093 1675.38 308.934 1675.96 308.728C1677.12 308.316 1678.84 307.714 1681.05 306.957C1685.48 305.442 1691.91 303.304 1699.89 300.821C1715.85 295.853 1737.99 289.506 1762.72 283.982C1787.46 278.458 1814.75 273.768 1841.02 272.099C1866.58 270.475 1891.01 271.722 1911.15 277.731V277.841L1913 278.34C1915.63 279.051 1917.42 281.754 1917.5 284.598C1917.54 285.963 1917.16 287.147 1916.49 287.985C1915.85 288.78 1914.77 289.471 1912.95 289.614L1912.91 289.617L1912.88 289.62C1804.12 301.205 1741.06 329.684 1650.01 370.805C1644.56 373.268 1639.01 375.776 1633.34 378.328C1583.03 400.976 1521.35 435.056 1472.28 463.442C1447.74 477.642 1426.34 490.428 1411.07 499.664C1403.44 504.282 1397.33 508.014 1393.14 510.591C1391.04 511.879 1389.42 512.88 1388.33 513.558L1388.18 513.648C1387.71 513.943 1387.34 514.171 1387.08 514.33L1386.77 514.527Z" stroke="#E0295D" stroke-width="5"/>
</svg>
