<svg fill="none" height="330" viewBox="0 0 600 330" width="600" xmlns="http://www.w3.org/2000/svg" xmlns:xlink="http://www.w3.org/1999/xlink"><clipPath id="a"><path d="m31.3105 30.291h259.775v279.328h-259.775z"/></clipPath><clipPath id="b"><path d="m31.3105 30.291h279.328v25.1395h-279.328z"/></clipPath><clipPath id="c"><path d="m31.3105 55.4316h279.328v25.1395h-279.328z"/></clipPath><clipPath id="d"><path d="m31.3105 80.5703h279.328v25.1395h-279.328z"/></clipPath><clipPath id="e"><path d="m31.3105 105.711h279.328v25.1395h-279.328z"/></clipPath><clipPath id="f"><path d="m31.3105 130.85h279.328v25.1395h-279.328z"/></clipPath><clipPath id="g"><path d="m31.3105 155.99h279.328v25.1395h-279.328z"/></clipPath><clipPath id="h"><path d="m31.3105 181.135h279.328v25.1395h-279.328z"/></clipPath><clipPath id="i"><path d="m31.3105 206.268h279.328v25.1395h-279.328z"/></clipPath><clipPath id="j"><path d="m31.3105 231.414h279.328v25.1395h-279.328z"/></clipPath><clipPath id="k"><path d="m31.3105 256.553h279.328v25.1395h-279.328z"/></clipPath><clipPath id="l"><path d="m31.3105 281.693h279.328v25.1395h-279.328z"/></clipPath><clipPath id="m"><path d="m307.84 30.291h259.775v279.328h-259.775z"/></clipPath><clipPath id="n"><path d="m307.84 30.291h279.328v25.1395h-279.328z"/></clipPath><clipPath id="o"><path d="m307.84 55.4316h279.328v25.1395h-279.328z"/></clipPath><clipPath id="p"><path d="m307.84 80.5703h279.328v25.1395h-279.328z"/></clipPath><clipPath id="q"><path d="m307.84 105.711h279.328v25.1395h-279.328z"/></clipPath><clipPath id="r"><path d="m307.84 130.85h279.328v25.1395h-279.328z"/></clipPath><clipPath id="s"><path d="m307.84 155.99h279.328v25.1395h-279.328z"/></clipPath><clipPath id="t"><path d="m307.84 181.135h279.328v25.1395h-279.328z"/></clipPath><clipPath id="u"><path d="m307.84 206.268h279.328v25.1395h-279.328z"/></clipPath><clipPath id="v"><path d="m307.84 231.414h279.328v25.1395h-279.328z"/></clipPath><clipPath id="w"><path d="m307.84 256.553h279.328v25.1395h-279.328z"/></clipPath><clipPath id="x"><path d="m307.84 281.691h279.328v25.1395h-279.328z"/></clipPath><path d="m0 .464844h600v328.571h-600z" fill="#fcfbff"/><g clip-path="url(#a)" fill="#f0eff4"><g clip-path="url(#b)"><circle cx="35.5005" cy="34.4809" r="4.18992"/><circle cx="60.6352" cy="34.4809" r="4.18992"/><circle cx="85.7798" cy="34.4809" r="4.18992"/><circle cx="110.915" cy="34.4809" r="4.18992"/><circle cx="136.059" cy="34.4809" r="4.18992"/><circle cx="161.194" cy="34.4809" r="4.18992"/><circle cx="186.332" cy="34.4809" r="4.18992"/><circle cx="211.477" cy="34.4809" r="4.18992"/><circle cx="236.618" cy="34.4809" r="4.18992"/><circle cx="261.75" cy="34.4809" r="4.18992"/><circle cx="286.897" cy="34.4809" r="4.18992"/></g><g clip-path="url(#c)"><circle cx="35.5005" cy="59.6216" r="4.18992"/><circle cx="60.6352" cy="59.6216" r="4.18992"/><circle cx="85.7798" cy="59.6216" r="4.18992"/><circle cx="110.915" cy="59.6216" r="4.18992"/><circle cx="136.059" cy="59.6216" r="4.18992"/><circle cx="161.194" cy="59.6216" r="4.18992"/><circle cx="186.332" cy="59.6216" r="4.18992"/><circle cx="211.477" cy="59.6216" r="4.18992"/><circle cx="236.618" cy="59.6216" r="4.18992"/><circle cx="261.75" cy="59.6216" r="4.18992"/><circle cx="286.897" cy="59.6216" r="4.18992"/></g><g clip-path="url(#d)"><circle cx="35.5005" cy="84.7602" r="4.18992"/><circle cx="60.6411" cy="84.7602" r="4.18992"/><circle cx="85.7798" cy="84.7602" r="4.18992"/><circle cx="110.915" cy="84.7602" r="4.18992"/><circle cx="136.059" cy="84.7602" r="4.18992"/><circle cx="161.194" cy="84.7602" r="4.18992"/><circle cx="186.332" cy="84.7602" r="4.18992"/><circle cx="211.473" cy="84.7602" r="4.18992"/><circle cx="236.618" cy="84.7602" r="4.18992"/><circle cx="261.75" cy="84.7602" r="4.18992"/><circle cx="286.897" cy="84.7602" r="4.18992"/></g><g clip-path="url(#e)"><circle cx="35.5005" cy="109.901" r="4.18992"/><circle cx="60.6411" cy="109.901" r="4.18992"/><circle cx="85.7798" cy="109.901" r="4.18992"/><circle cx="110.915" cy="109.901" r="4.18992"/><circle cx="136.059" cy="109.901" r="4.18992"/><circle cx="161.194" cy="109.901" r="4.18992"/><circle cx="186.332" cy="109.901" r="4.18992"/><circle cx="211.473" cy="109.901" r="4.18992"/><circle cx="236.618" cy="109.901" r="4.18992"/><circle cx="261.75" cy="109.901" r="4.18992"/><circle cx="286.897" cy="109.901" r="4.18992"/></g><g clip-path="url(#f)"><circle cx="35.5005" cy="135.04" r="4.18992"/><circle cx="60.6352" cy="135.04" r="4.18992"/><circle cx="85.7798" cy="135.04" r="4.18992"/><circle cx="110.915" cy="135.04" r="4.18992"/><circle cx="136.059" cy="135.04" r="4.18992"/><circle cx="161.194" cy="135.04" r="4.18992"/><circle cx="186.332" cy="135.04" r="4.18992"/><circle cx="211.477" cy="135.04" r="4.18992"/><circle cx="236.618" cy="135.04" r="4.18992"/><circle cx="261.75" cy="135.04" r="4.18992"/><circle cx="286.897" cy="135.04" r="4.18992"/></g><g clip-path="url(#g)"><circle cx="35.5005" cy="160.18" r="4.18992"/><circle cx="60.6352" cy="160.18" r="4.18992"/><circle cx="85.7798" cy="160.18" r="4.18992"/><circle cx="110.915" cy="160.18" r="4.18992"/><circle cx="136.059" cy="160.18" r="4.18992"/><circle cx="161.194" cy="160.18" r="4.18992"/><circle cx="186.332" cy="160.18" r="4.18992"/><circle cx="211.477" cy="160.18" r="4.18992"/><circle cx="236.618" cy="160.18" r="4.18992"/><circle cx="261.75" cy="160.18" r="4.18992"/><circle cx="286.897" cy="160.18" r="4.18992"/></g><g clip-path="url(#h)"><circle cx="35.5005" cy="185.325" r="4.18992"/><circle cx="60.6411" cy="185.325" r="4.18992"/><circle cx="85.7798" cy="185.325" r="4.18992"/><circle cx="110.915" cy="185.325" r="4.18992"/><circle cx="136.059" cy="185.325" r="4.18992"/><circle cx="161.194" cy="185.325" r="4.18992"/><circle cx="186.332" cy="185.325" r="4.18992"/><circle cx="211.473" cy="185.325" r="4.18992"/><circle cx="236.618" cy="185.325" r="4.18992"/><circle cx="261.75" cy="185.325" r="4.18992"/><circle cx="286.897" cy="185.325" r="4.18992"/></g><g clip-path="url(#i)"><circle cx="35.5005" cy="210.457" r="4.18992"/><circle cx="60.6411" cy="210.457" r="4.18992"/><circle cx="85.7798" cy="210.457" r="4.18992"/><circle cx="110.915" cy="210.457" r="4.18992"/><circle cx="136.059" cy="210.457" r="4.18992"/><circle cx="161.194" cy="210.457" r="4.18992"/><circle cx="186.332" cy="210.457" r="4.18992"/><circle cx="211.473" cy="210.457" r="4.18992"/><circle cx="236.618" cy="210.457" r="4.18992"/><circle cx="261.75" cy="210.457" r="4.18992"/><circle cx="286.897" cy="210.457" r="4.18992"/></g><g clip-path="url(#j)"><circle cx="35.5005" cy="235.604" r="4.18992"/><circle cx="60.6352" cy="235.604" r="4.18992"/><circle cx="85.7798" cy="235.604" r="4.18992"/><circle cx="110.915" cy="235.604" r="4.18992"/><circle cx="136.059" cy="235.604" r="4.18992"/><circle cx="161.194" cy="235.604" r="4.18992"/><circle cx="186.332" cy="235.604" r="4.18992"/><circle cx="211.477" cy="235.604" r="4.18992"/><circle cx="236.618" cy="235.604" r="4.18992"/><circle cx="261.75" cy="235.604" r="4.18992"/><circle cx="286.897" cy="235.604" r="4.18992"/></g><g clip-path="url(#k)"><circle cx="35.5005" cy="260.743" r="4.18992"/><circle cx="60.6352" cy="260.743" r="4.18992"/><circle cx="85.7798" cy="260.743" r="4.18992"/><circle cx="110.915" cy="260.743" r="4.18992"/><circle cx="136.059" cy="260.743" r="4.18992"/><circle cx="161.194" cy="260.743" r="4.18992"/><circle cx="186.332" cy="260.743" r="4.18992"/><circle cx="211.477" cy="260.743" r="4.18992"/><circle cx="236.618" cy="260.743" r="4.18992"/><circle cx="261.75" cy="260.743" r="4.18992"/><circle cx="286.897" cy="260.743" r="4.18992"/></g><g clip-path="url(#l)"><circle cx="35.5005" cy="285.883" r="4.18992"/><circle cx="60.6352" cy="285.881" r="4.18992"/><circle cx="85.7798" cy="285.883" r="4.18992"/><circle cx="110.915" cy="285.881" r="4.18992"/><circle cx="136.059" cy="285.883" r="4.18992"/><circle cx="161.194" cy="285.881" r="4.18992"/><circle cx="186.332" cy="285.881" r="4.18992"/><circle cx="211.477" cy="285.883" r="4.18992"/><circle cx="236.618" cy="285.883" r="4.18992"/><circle cx="261.75" cy="285.881" r="4.18992"/><circle cx="286.897" cy="285.883" r="4.18992"/></g></g><g clip-path="url(#m)" fill="#f0eff4"><g clip-path="url(#n)"><circle cx="312.03" cy="34.4809" r="4.18992"/><circle cx="337.176" cy="34.4809" r="4.18992"/><circle cx="362.309" cy="34.4809" r="4.18992"/><circle cx="387.45" cy="34.4809" r="4.18992"/><circle cx="412.594" cy="34.4809" r="4.18992"/><circle cx="437.733" cy="34.4809" r="4.18992"/><circle cx="462.868" cy="34.4809" r="4.18992"/><circle cx="488.012" cy="34.4809" r="4.18992"/><circle cx="513.153" cy="34.4809" r="4.18992"/><circle cx="538.292" cy="34.4809" r="4.18992"/><circle cx="563.43" cy="34.4809" r="4.18992"/></g><g clip-path="url(#o)"><circle cx="312.03" cy="59.6216" r="4.18992"/><circle cx="337.176" cy="59.6216" r="4.18992"/><circle cx="362.309" cy="59.6216" r="4.18992"/><circle cx="387.45" cy="59.6216" r="4.18992"/><circle cx="412.594" cy="59.6216" r="4.18992"/><circle cx="437.731" cy="59.6216" r="4.18992"/><circle cx="462.868" cy="59.6216" r="4.18992"/><circle cx="488.012" cy="59.6216" r="4.18992"/><circle cx="513.153" cy="59.6216" r="4.18992"/><circle cx="538.292" cy="59.6216" r="4.18992"/><circle cx="563.43" cy="59.6216" r="4.18992"/></g><g clip-path="url(#p)"><circle cx="312.03" cy="84.7602" r="4.18992"/><circle cx="337.176" cy="84.7602" r="4.18992"/><circle cx="362.309" cy="84.7602" r="4.18992"/><circle cx="387.45" cy="84.7602" r="4.18992"/><circle cx="412.588" cy="84.7602" r="4.18992"/><circle cx="437.733" cy="84.7602" r="4.18992"/><circle cx="462.868" cy="84.7602" r="4.18992"/><circle cx="488.012" cy="84.7602" r="4.18992"/><circle cx="513.153" cy="84.7602" r="4.18992"/><circle cx="538.292" cy="84.7602" r="4.18992"/><circle cx="563.43" cy="84.7602" r="4.18992"/></g><g clip-path="url(#q)"><circle cx="312.03" cy="109.901" r="4.18992"/><circle cx="337.176" cy="109.901" r="4.18992"/><circle cx="362.309" cy="109.901" r="4.18992"/><circle cx="387.45" cy="109.901" r="4.18992"/><circle cx="412.588" cy="109.901" r="4.18992"/><circle cx="437.731" cy="109.901" r="4.18992"/><circle cx="462.868" cy="109.901" r="4.18992"/><circle cx="488.012" cy="109.901" r="4.18992"/><circle cx="513.153" cy="109.901" r="4.18992"/><circle cx="538.292" cy="109.901" r="4.18992"/><circle cx="563.43" cy="109.901" r="4.18992"/></g><g clip-path="url(#r)"><circle cx="312.03" cy="135.04" r="4.18992"/><circle cx="337.176" cy="135.04" r="4.18992"/><circle cx="362.309" cy="135.04" r="4.18992"/><circle cx="387.45" cy="135.04" r="4.18992"/><circle cx="412.594" cy="135.04" r="4.18992"/><circle cx="437.733" cy="135.04" r="4.18992"/><circle cx="462.868" cy="135.04" r="4.18992"/><circle cx="488.012" cy="135.04" r="4.18992"/><circle cx="513.153" cy="135.04" r="4.18992"/><circle cx="538.292" cy="135.04" r="4.18992"/><circle cx="563.43" cy="135.04" r="4.18992"/></g><g clip-path="url(#s)"><circle cx="312.03" cy="160.18" r="4.18992"/><circle cx="337.176" cy="160.18" r="4.18992"/><circle cx="362.309" cy="160.18" r="4.18992"/><circle cx="387.45" cy="160.18" r="4.18992"/><circle cx="412.594" cy="160.18" r="4.18992"/><circle cx="437.731" cy="160.18" r="4.18992"/><circle cx="462.868" cy="160.18" r="4.18992"/><circle cx="488.012" cy="160.18" r="4.18992"/><circle cx="513.153" cy="160.18" r="4.18992"/><circle cx="538.292" cy="160.18" r="4.18992"/><circle cx="563.43" cy="160.18" r="4.18992"/></g><g clip-path="url(#t)"><circle cx="312.03" cy="185.325" r="4.18992"/><circle cx="337.176" cy="185.325" r="4.18992"/><circle cx="362.309" cy="185.325" r="4.18992"/><circle cx="387.45" cy="185.325" r="4.18992"/><circle cx="412.588" cy="185.325" r="4.18992"/><circle cx="437.733" cy="185.325" r="4.18992"/><circle cx="462.868" cy="185.325" r="4.18992"/><circle cx="488.012" cy="185.325" r="4.18992"/><circle cx="513.153" cy="185.325" r="4.18992"/><circle cx="538.292" cy="185.325" r="4.18992"/><circle cx="563.43" cy="185.325" r="4.18992"/></g><g clip-path="url(#u)"><circle cx="312.03" cy="210.457" r="4.18992"/><circle cx="337.176" cy="210.457" r="4.18992"/><circle cx="362.309" cy="210.457" r="4.18992"/><circle cx="387.45" cy="210.457" r="4.18992"/><circle cx="412.588" cy="210.457" r="4.18992"/><circle cx="437.733" cy="210.457" r="4.18992"/><circle cx="462.868" cy="210.457" r="4.18992"/><circle cx="488.012" cy="210.457" r="4.18992"/><circle cx="513.153" cy="210.457" r="4.18992"/><circle cx="538.292" cy="210.457" r="4.18992"/><circle cx="563.43" cy="210.457" r="4.18992"/></g><g clip-path="url(#v)"><circle cx="312.03" cy="235.604" r="4.18992"/><circle cx="337.176" cy="235.604" r="4.18992"/><circle cx="362.309" cy="235.604" r="4.18992"/><circle cx="387.45" cy="235.604" r="4.18992"/><circle cx="412.594" cy="235.604" r="4.18992"/><circle cx="437.733" cy="235.604" r="4.18992"/><circle cx="462.868" cy="235.604" r="4.18992"/><circle cx="488.012" cy="235.604" r="4.18992"/><circle cx="513.153" cy="235.604" r="4.18992"/><circle cx="538.292" cy="235.604" r="4.18992"/><circle cx="563.43" cy="235.604" r="4.18992"/></g><g clip-path="url(#w)"><circle cx="312.03" cy="260.743" r="4.18992"/><circle cx="337.176" cy="260.743" r="4.18992"/><circle cx="362.309" cy="260.743" r="4.18992"/><circle cx="387.45" cy="260.743" r="4.18992"/><circle cx="412.594" cy="260.743" r="4.18992"/><circle cx="437.731" cy="260.743" r="4.18992"/><circle cx="462.868" cy="260.743" r="4.18992"/><circle cx="488.012" cy="260.743" r="4.18992"/><circle cx="513.153" cy="260.743" r="4.18992"/><circle cx="538.292" cy="260.743" r="4.18992"/><circle cx="563.43" cy="260.743" r="4.18992"/></g><g clip-path="url(#x)"><circle cx="312.03" cy="285.881" r="4.18992"/><circle cx="337.176" cy="285.883" r="4.18992"/><circle cx="362.309" cy="285.881" r="4.18992"/><circle cx="387.45" cy="285.881" r="4.18992"/><circle cx="412.594" cy="285.883" r="4.18992"/><circle cx="437.733" cy="285.883" r="4.18992"/><circle cx="462.868" cy="285.881" r="4.18992"/><circle cx="488.012" cy="285.883" r="4.18992"/><circle cx="513.153" cy="285.883" r="4.18992"/><circle cx="538.292" cy="285.883" r="4.18992"/><circle cx="563.43" cy="285.883" r="4.18992"/></g></g><path d="m40.2987 288.529c54.0957-2.955 104.2733-65.57 158.5433-72.195 54.269-6.626 69.431 48.661 118.835 41.191 49.405-7.469 41.317-50.298 78.283-54.065 36.967-3.767 38.422-40.959 64.757-40.324 26.334.634 49.09-24.359 98.558-18.624" stroke="#e0295d" stroke-linecap="round" stroke-width="4.3088"/><g fill="#191526"><path d="m457.793 46.1381h-4.552v-3.2711h8.022v20.7932h-3.47zm10.944 0h-4.551v-3.2711h8.021v20.7932h-3.47zm9.94 17.8634c-.626 0-1.166-.2181-1.622-.6542-.455-.4362-.682-.9672-.682-1.593 0-.6257.227-1.1567.682-1.5929.456-.4551.996-.6826 1.622-.6826s1.166.2275 1.621.6826c.455.4362.683.9672.683 1.5929 0 .6258-.228 1.1568-.683 1.593-.455.4361-.995.6542-1.621.6542zm18.695-21.1345v20.7932h-3.442v-20.7932zm-13.995 13.6535 9.415-13.6535h3.84l-9.557 13.8811zm16.526 3.1858h-16.526v-3.1858h16.526zm9.291 4.2952c-1.441 0-2.712-.2845-3.812-.8534-1.081-.5878-1.924-1.4032-2.531-2.4462-.588-1.062-.882-2.2946-.882-3.6978h3.584c0 1.1757.332 2.0954.996 2.7591.663.6637 1.574.9956 2.73.9956.816 0 1.517-.1612 2.105-.4836.607-.3413 1.072-.8249 1.394-1.4507.341-.6258.512-1.3558.512-2.1902 0-.7965-.161-1.4981-.484-2.1049-.303-.6258-.749-1.1094-1.336-1.4507-.588-.3414-1.299-.512-2.134-.512-.796 0-1.536.1801-2.219.5404-.663.3413-1.185.787-1.564 1.3369l-3.214-.6827 2.56-10.8943h10.837v3.3564h-9.159l1.223-1.1377-1.678 6.6276-1.223.512c.455-.8723 1.138-1.536 2.048-1.9911.929-.4741 1.972-.7111 3.129-.7111 1.384 0 2.588.2939 3.612.8817 1.043.5879 1.849 1.4033 2.418 2.4463.588 1.024.882 2.2187.882 3.5841 0 1.4981-.332 2.816-.996 3.9538-.644 1.1378-1.555 2.0291-2.73 2.6738-1.157.6258-2.513.9387-4.068.9387zm23.593-18.2332-7.509 6.9121-2.389-1.6782 7.281-6.6846-.625 1.7636h-9.956v-3.2142h13.198zm-7.367 7.5948h-2.531v-2.3609c.36-.2845.834-.4741 1.422-.5689.588-.1138 1.138-.1707 1.65-.1707.986 0 1.924.1517 2.816.4551.891.3035 1.678.7491 2.361 1.3369.701.5689 1.251 1.2801 1.649 2.1334.399.8344.598 1.792.598 2.8729 0 1.4223-.332 2.6549-.996 3.6979s-1.574 1.8489-2.731 2.4178c-1.137.5689-2.408.8533-3.811.8533-1.365 0-2.598-.2654-3.698-.7964-1.081-.55-1.944-1.3464-2.588-2.3894-.626-1.043-.939-2.3135-.939-3.8116h3.584c0 1.1947.332 2.1239.996 2.7876.682.6447 1.583.9671 2.702.9671 1.138 0 2.048-.3413 2.73-1.024.702-.7016 1.053-1.6213 1.053-2.7591 0-1.043-.351-1.9059-1.053-2.5885-.701-.7017-1.773-1.0525-3.214-1.0525zm29.181 10.6384c-2.067 0-3.888-.4267-5.462-1.28-1.574-.8534-2.806-2.0765-3.697-3.6694-.892-1.6119-1.337-3.5272-1.337-5.7459 0-2.2376.445-4.1624 1.337-5.7743.91-1.6119 2.18-2.854 3.811-3.7263s3.518-1.3084 5.661-1.3084c.531 0 1.071.0379 1.621.1138.55.0568 1.062.1611 1.536.3128v3.4134c-.455-.1327-.967-.237-1.536-.3129-.55-.0758-1.033-.1137-1.451-.1137-1.574 0-2.91.2749-4.01.8249-1.1.5309-1.944 1.3463-2.532 2.4462-.569 1.0809-.853 2.4463-.853 4.0961 0 1.6119.284 2.9677.853 4.0676.569 1.0809 1.384 1.8963 2.446 2.4463 1.062.5499 2.333.8249 3.812.8249.569 0 1.147-.0475 1.735-.1423s1.166-.2275 1.735-.3982v3.4987c-.663.1328-1.289.2371-1.877.3129-.569.0759-1.166.1138-1.792.1138zm.853-7.1112h-13.028v-2.5885h13.028zm0-4.5796h-13.028v-2.5885h13.028z"/><path d="m384.448 87.1422c0 1.7222-.349 3.2505-1.047 4.5848-.698 1.3188-1.668 2.3506-2.909 3.0953-1.241.7448-2.676 1.1171-4.306 1.1171-1.613 0-3.041-.3723-4.282-1.1171-1.241-.7447-2.211-1.7765-2.909-3.0953-.683-1.3188-1.024-2.8393-1.024-4.5615 0-1.7377.349-3.266 1.047-4.5848.698-1.3343 1.66-2.3739 2.886-3.1186 1.241-.7447 2.677-1.1171 4.306-1.1171s3.056.3724 4.282 1.1171c1.241.7447 2.211 1.7765 2.909 3.0953s1.047 2.8471 1.047 4.5848zm-3.118 0c0-1.2102-.21-2.2575-.629-3.1419-.419-.8843-1.008-1.567-1.768-2.048-.761-.4965-1.668-.7447-2.723-.7447-1.04 0-1.948.2482-2.723.7447-.761.481-1.35 1.1637-1.769 2.048-.419.8844-.628 1.9317-.628 3.1419s.209 2.2653.628 3.1651c.419.8844 1.008 1.5671 1.769 2.0481.775.481 1.683.7214 2.723.7214 1.055 0 1.962-.2404 2.723-.7214.76-.4965 1.349-1.1869 1.768-2.0713.419-.8999.629-1.9472.629-3.1419zm8.335 8.518h-2.84v-11.4969h2.63l.233 1.4894c.357-.574.861-1.024 1.513-1.3498.667-.3258 1.388-.4887 2.164-.4887 1.443 0 2.529.4266 3.258 1.28.745.8533 1.117 2.017 1.117 3.4909v7.0751h-2.839v-6.4001c0-.962-.217-1.6757-.652-2.1412-.434-.4809-1.024-.7214-1.768-.7214-.885 0-1.575.2792-2.072.8378-.496.5586-.744 1.3033-.744 2.2342zm15.997-11.4969h7.262v2.3738h-7.262zm5.051 11.4969h-2.84v-15.081h2.84zm6.838 0h-2.839v-17.3152h2.863v7.3077c.356-.5585.853-1.0007 1.489-1.3265.652-.3414 1.397-.512 2.234-.512 1.412 0 2.483.4266 3.212 1.28.745.8533 1.117 2.017 1.117 3.4909v7.0751h-2.839v-6.4001c0-.6517-.101-1.187-.303-1.6059-.201-.4189-.481-.7292-.838-.9309-.356-.2172-.775-.3258-1.256-.3258-.59 0-1.102.1319-1.536.3956-.419.2483-.745.5974-.978 1.0473-.217.4499-.326.962-.326 1.536zm16.009.3025c-1.132 0-2.141-.256-3.025-.768-.869-.5275-1.552-1.2412-2.048-2.1411-.497-.9154-.745-1.9627-.745-3.1419 0-1.1947.24-2.2497.721-3.1651s1.156-1.6291 2.025-2.1412c.869-.5275 1.862-.7912 2.979-.7912 1.164 0 2.164.2482 3.002.7447.838.481 1.482 1.1559 1.932 2.0248.465.8688.698 1.9083.698 3.1185v.8612l-9.868.0232.047-1.8153h7.005c0-.7913-.256-1.4274-.768-1.9084-.496-.4809-1.171-.7214-2.025-.7214-.667 0-1.233.1396-1.699.4189-.45.2793-.791.6982-1.024 1.2567-.232.5586-.349 1.2413-.349 2.0481 0 1.2412.264 2.1799.792 2.816.543.6361 1.342.9542 2.397.9542.775 0 1.412-.1474 1.908-.4422.512-.2948.846-.7137 1.001-1.2567h2.63c-.249 1.2567-.869 2.2419-1.862 2.9556-.978.7138-2.219 1.0706-3.724 1.0706zm16.947-.3025h-2.816v-17.3152h2.816zm6.4.3025c-1.211 0-2.173-.3258-2.886-.9775-.699-.6671-1.048-1.536-1.048-2.6065 0-1.0551.365-1.8929 1.094-2.5135.745-.6362 1.8-1.0085 3.165-1.1171l3.445-.2793v-.256c0-.5276-.101-.9465-.303-1.2568-.186-.3258-.458-.5585-.814-.6982-.357-.1551-.776-.2327-1.257-.2327-.838 0-1.482.1707-1.932.512-.45.3258-.675.7913-.675 1.3964h-2.42c0-.8378.209-1.5593.628-2.1644.435-.6206 1.04-1.1016 1.816-1.4429.791-.3414 1.699-.512 2.723-.512 1.039 0 1.931.1861 2.676.5585.745.3569 1.319.8999 1.722 1.6291.404.7137.605 1.6059.605 2.6764v6.982h-2.49l-.209-1.699c-.249.5896-.73 1.0706-1.443 1.443-.699.3723-1.498.5585-2.397.5585zm.907-2.1411c.885 0 1.583-.2483 2.095-.7448.527-.4964.791-1.1869.791-2.0713v-.6051l-2.397.1862c-.884.0776-1.513.2638-1.885.5586-.373.2793-.559.6516-.559 1.1171 0 .512.171.8999.512 1.1636.342.2638.823.3957 1.443.3957zm7.537-1.6524h2.7c.015.4965.202.8921.558 1.1869.357.2948.854.4422 1.49.4422.683 0 1.195-.1241 1.536-.3724.357-.2482.535-.5818.535-1.0007 0-.2793-.093-.5275-.279-.7447-.186-.2173-.535-.3802-1.047-.4888l-2.072-.4887c-1.039-.2327-1.815-.6051-2.327-1.1171-.496-.5275-.745-1.249-.745-2.1644 0-.7448.194-1.3886.582-1.9317.403-.543.947-.9542 1.629-1.2335.683-.2947 1.466-.4421 2.351-.4421.853 0 1.606.1551 2.257.4654.652.3103 1.156.7448 1.513 1.3033.372.5586.566 1.2102.582 1.955h-2.7c0-.4965-.155-.8844-.465-1.1637-.311-.2948-.745-.4422-1.304-.4422-.558 0-.993.1241-1.303.3724-.31.2482-.465.5818-.465 1.0007 0 .6362.496 1.0706 1.489 1.3033l2.071.4887c.962.2173 1.684.5664 2.165 1.0473.496.481.745 1.1637.745 2.0481 0 .7757-.202 1.4507-.606 2.0247-.403.5586-.969.993-1.698 1.3033-.73.2948-1.567.4422-2.514.4422-1.427 0-2.568-.3491-3.421-1.0473-.838-.6982-1.257-1.6136-1.257-2.7462zm10.517-8.0059h7.261v2.3738h-7.261zm5.05 11.4969h-2.839v-15.081h2.839zm13.112 0h-2.84v-11.4969h2.607l.349 2.048-.326-.2793c.233-.5585.66-1.0473 1.28-1.4662.621-.4344 1.397-.6516 2.328-.6516 1.008 0 1.83.2637 2.467.7912.651.5276 1.101 1.2258 1.349 2.0946h-.465c.171-.8688.605-1.567 1.303-2.0946.714-.5275 1.575-.7912 2.584-.7912 1.396 0 2.467.3956 3.211 1.1869.745.7758 1.117 1.823 1.117 3.1419v7.5172h-2.816v-6.7725c0-.8223-.209-1.4429-.628-1.8619-.403-.4344-.946-.6516-1.629-.6516-.435 0-.838.1008-1.21.3025-.357.2017-.644.5043-.861.9077-.218.4034-.326.9232-.326 1.5593v6.5165h-2.84v-6.7958c0-.8068-.201-1.4196-.605-1.8386-.403-.4189-.938-.6283-1.606-.6283-.449 0-.861.1008-1.233.3025-.372.1862-.667.4888-.884.9077-.218.4034-.326.9154-.326 1.536zm17.077-5.7718c0-1.1947.264-2.2419.791-3.1418.528-.9154 1.257-1.6291 2.188-2.1412.931-.512 1.986-.768 3.165-.768 1.195 0 2.25.256 3.165.768.931.5121 1.66 1.2258 2.188 2.1412.527.8999.791 1.9471.791 3.1418s-.264 2.2498-.791 3.1652c-.528.8999-1.257 1.6058-2.188 2.1178-.915.512-1.97.768-3.165.768-1.179 0-2.234-.256-3.165-.768s-1.66-1.2179-2.188-2.1178c-.527-.9154-.791-1.9705-.791-3.1652zm2.839 0c0 .6982.14 1.3111.419 1.8386.295.5275.683.9387 1.164 1.2335.496.2948 1.07.4422 1.722.4422s1.226-.1474 1.722-.4422c.497-.2948.884-.706 1.164-1.2335.279-.5275.419-1.1404.419-1.8386 0-.7137-.14-1.3265-.419-1.8385-.28-.5276-.667-.9387-1.164-1.2335-.496-.2948-1.07-.4422-1.722-.4422s-1.226.1474-1.722.4422c-.481.2948-.869.7059-1.164 1.2335-.279.512-.419 1.1248-.419 1.8385zm14.539 5.7718h-2.839v-11.4969h2.629l.233 1.4894c.357-.574.861-1.024 1.513-1.3498.667-.3258 1.389-.4887 2.164-.4887 1.443 0 2.529.4266 3.259 1.28.744.8533 1.117 2.017 1.117 3.4909v7.0751h-2.84v-6.4001c0-.962-.217-1.6757-.651-2.1412-.435-.4809-1.024-.7214-1.769-.7214-.884 0-1.575.2792-2.071.8378-.497.5586-.745 1.3033-.745 2.2342zm9.725-11.4969h7.261v2.3738h-7.261zm5.05 11.4969h-2.839v-15.081h2.839zm6.839 0h-2.84v-17.3152h2.863v7.3077c.357-.5585.853-1.0007 1.49-1.3265.651-.3414 1.396-.512 2.234-.512 1.412 0 2.482.4266 3.211 1.28.745.8533 1.118 2.017 1.118 3.4909v7.0751h-2.84v-6.4001c0-.6517-.101-1.187-.302-1.6059-.202-.4189-.481-.7292-.838-.9309-.357-.2172-.776-.3258-1.257-.3258-.589 0-1.101.1319-1.536.3956-.419.2483-.745.5974-.977 1.0473-.218.4499-.326.962-.326 1.536z" opacity=".5"/></g></svg>