<svg width="24" height="25" viewBox="0 0 24 25" fill="none" xmlns="http://www.w3.org/2000/svg">
<path d="M6.93945 5.50002C6.93919 6.03046 6.72822 6.53906 6.35296 6.91394C5.9777 7.28883 5.46889 7.49929 4.93845 7.49902C4.40802 7.49876 3.89942 7.28779 3.52453 6.91253C3.14965 6.53727 2.93919 6.02846 2.93945 5.49802C2.93972 4.96759 3.15069 4.45899 3.52595 4.0841C3.90121 3.70922 4.41002 3.49876 4.94045 3.49902C5.47089 3.49929 5.97949 3.71026 6.35437 4.08552C6.72926 4.46078 6.93972 4.96959 6.93945 5.50002ZM6.99945 8.98002H2.99945V21.5H6.99945V8.98002ZM13.3195 8.98002H9.33945V21.5H13.2795V14.93C13.2795 11.27 18.0495 10.93 18.0495 14.93V21.5H21.9995V13.57C21.9995 7.40002 14.9395 7.63002 13.2795 10.66L13.3195 8.98002Z" fill="black"/>
</svg>
